<svg width="415" height="390" viewBox="0 0 415 390" fill="none" xmlns="http://www.w3.org/2000/svg">
<g id="Startup life-pana 1">
<g id="freepik--background-complete--inject-3">
<path id="Vector" d="M352.285 103.093C352.719 103.15 353.139 103.274 353.53 103.459C354.448 103.88 355.218 104.541 355.746 105.363C356.275 106.185 356.54 107.133 356.51 108.092C356.484 108.998 356.198 109.879 355.68 110.643C355.405 111.059 355.064 111.433 354.667 111.751C354.259 112.078 353.796 112.342 353.298 112.531C352.253 112.958 351.092 113.067 349.978 112.843C348.854 112.603 347.842 112.032 347.089 111.212C346.74 110.829 346.459 110.394 346.259 109.925C346.044 109.481 345.907 109.007 345.853 108.521C345.733 107.622 345.873 106.708 346.259 105.877C346.665 104.996 347.334 104.244 348.186 103.714C349.038 103.183 350.035 102.897 351.057 102.89C351.495 102.876 351.933 102.931 352.352 103.054C352.352 103.093 351.887 102.968 351.065 102.999C349.895 103.047 348.776 103.461 347.886 104.177C347.275 104.663 346.794 105.277 346.484 105.971C346.131 106.767 346.008 107.636 346.127 108.49C346.187 108.949 346.322 109.396 346.525 109.816C346.73 110.261 347.01 110.672 347.355 111.033C348.062 111.817 349.02 112.364 350.086 112.593C351.146 112.814 352.253 112.713 353.248 112.304C353.723 112.114 354.161 111.851 354.543 111.524C354.922 111.228 355.247 110.875 355.506 110.479C356.008 109.758 356.295 108.923 356.336 108.061C356.374 107.136 356.132 106.22 355.638 105.42C355.145 104.619 354.419 103.966 353.547 103.537C352.75 103.202 352.277 103.132 352.285 103.093Z" fill="#E0E0E0"/>
<path id="Vector_2" d="M356.502 97.8042C356.498 97.7471 356.498 97.6897 356.502 97.6326C356.502 97.5 356.502 97.3284 356.502 97.1022C356.502 96.6186 356.502 95.9244 356.502 95.0196L356.543 95.0664L351.754 94.0836L351.837 94.0446L350.575 96.564V96.6108H350.517C349.457 96.6541 348.408 96.8298 347.397 97.1334H347.338H347.297L345.114 95.16H345.28L341.13 97.6404V97.5L342.126 100.121V100.183L342.076 100.238C341.36 100.971 340.749 101.789 340.259 102.671V102.734H340.176H337.221L337.345 102.632C337.013 104.044 336.648 105.565 336.283 107.133L336.208 106.985L338.881 108.17H338.955V108.248C338.998 109.241 339.18 110.225 339.495 111.173V111.251L339.429 111.314L337.337 113.287V113.116L339.96 117.016L339.785 116.953L342.574 116.017H342.657L342.732 116.072C343.504 116.747 344.369 117.322 345.305 117.78V117.78C345.346 117.835 345.23 117.655 345.388 117.905V120.682L345.272 120.541L350.053 121.555L349.887 121.633C350.31 120.783 350.717 119.948 351.156 119.114L351.198 119.044H351.289C352.343 119.006 353.387 118.835 354.393 118.537H354.476L354.543 118.599L356.643 120.565H356.46L360.61 118.108L360.552 118.256L359.556 115.635V115.565L359.614 115.502C360.334 114.773 360.949 113.958 361.44 113.077V113.014H364.478L364.362 113.108C364.744 111.548 365.1 110.035 365.441 108.607L365.507 108.732L362.835 107.531H362.776V107.468C362.74 106.473 362.562 105.486 362.245 104.536V104.481V104.442C363.009 103.724 363.689 103.077 364.345 102.469V102.578L361.739 98.6778H361.822L359.025 99.5904C358.438 99.0789 357.801 98.6193 357.124 98.2176L356.61 97.929L356.444 97.8276L356.626 97.9056L357.149 98.1708C357.843 98.5605 358.494 99.0153 359.091 99.528H359.041L361.822 98.5764H361.872V98.6232L364.511 102.523L364.553 102.586L364.503 102.632L362.511 104.52V104.426C362.84 105.394 363.027 106.399 363.067 107.414L363.009 107.328L365.69 108.514L365.773 108.553V108.638C365.441 110.058 365.084 111.548 364.71 113.131V113.225H361.631L361.747 113.162C361.245 114.064 360.62 114.901 359.888 115.651V115.518C360.212 116.376 360.552 117.25 360.884 118.139L360.926 118.24L360.826 118.295L356.676 120.767L356.576 120.822L356.493 120.744L354.41 118.802H354.559C353.527 119.11 352.455 119.286 351.372 119.324L351.497 119.246C351.082 120.073 350.667 120.916 350.227 121.758L350.177 121.859H350.061L345.28 120.9H345.164V118.006C345.322 118.256 345.205 118.076 345.247 118.131C344.288 117.663 343.4 117.075 342.607 116.384H342.757L339.968 117.312L339.852 117.351L339.794 117.257L337.171 113.357L337.105 113.264L337.188 113.186L339.279 111.212V111.353C338.954 110.382 338.767 109.375 338.723 108.358L338.806 108.475L336.15 107.242L336.05 107.195V107.094L337.129 102.601V102.5H340.192L340.076 102.562C340.581 101.665 341.208 100.833 341.943 100.09V100.207L340.956 97.578V97.5L341.039 97.4454L345.189 94.9884H345.263L345.322 95.043L347.421 97.0164H347.322C348.35 96.7142 349.416 96.5437 350.492 96.5094L350.418 96.5562C350.883 95.6514 351.314 94.8012 351.696 94.0446V93.99H351.754L356.527 95.0274H356.568C356.568 95.9244 356.568 96.5874 356.568 97.0944C356.568 97.3206 356.568 97.5 356.568 97.6248C356.55 97.6857 356.527 97.7456 356.502 97.8042V97.8042Z" fill="#E0E0E0"/>
<path id="Vector_3" d="M385.502 322.491C385.502 322.491 385.502 322.195 385.502 321.641C385.502 321.087 385.502 320.252 385.502 319.176C385.502 317.015 385.502 313.841 385.46 309.769C385.46 301.634 385.419 289.895 385.394 275.496L385.527 275.621L299.099 275.66L299.281 275.496C299.281 292.126 299.281 308.014 299.281 322.491L299.115 322.335L361.282 322.405L379.136 322.452H383.9H385.12H385.543H383.925H379.202L361.382 322.499L299.132 322.569H298.974V322.421C298.974 307.944 298.974 292.055 298.974 275.426V275.34H299.157H385.585H385.726V275.473C385.726 289.91 385.676 301.665 385.66 309.793C385.66 313.856 385.66 317.015 385.66 319.153C385.66 320.213 385.66 321.032 385.66 321.586C385.66 322.14 385.502 322.491 385.502 322.491Z" fill="#E0E0E0"/>
<path id="Vector_4" d="M385.535 281.182C385.535 281.276 366.204 281.346 342.375 281.346C318.546 281.346 299.215 281.276 299.215 281.182C299.215 281.089 318.537 281.018 342.375 281.018C366.213 281.018 385.535 281.089 385.535 281.182Z" fill="#E0E0E0"/>
<path id="Vector_5" d="M333.253 288.935H306.552V314.028H333.253V288.935Z" fill="#F5F5F5"/>
<path id="Vector_6" d="M379.235 293.069C379.106 293.086 378.975 293.086 378.845 293.069H377.717L373.567 293.116L359.905 293.171L346.243 293.116L342.093 293.069H340.964C340.835 293.086 340.703 293.086 340.574 293.069C340.704 293.056 340.834 293.056 340.964 293.069H342.093L346.243 293.015L359.905 292.968L373.567 293.015L377.717 293.069H378.845C378.975 293.056 379.106 293.056 379.235 293.069V293.069Z" fill="#E0E0E0"/>
<path id="Vector_7" d="M380.09 298.678C379.958 298.691 379.824 298.691 379.692 298.678H378.538L374.305 298.732L360.345 298.779L346.376 298.732L342.143 298.678H340.989C340.857 298.691 340.723 298.691 340.591 298.678C340.721 298.648 340.855 298.635 340.989 298.639H342.143L346.376 298.592L360.345 298.537L374.305 298.592L378.538 298.639H379.692C379.826 298.635 379.96 298.648 380.09 298.678V298.678Z" fill="#E0E0E0"/>
<path id="Vector_8" d="M380.09 304.278C379.958 304.295 379.824 304.295 379.692 304.278H378.538L374.305 304.325L360.345 304.379L346.376 304.325L342.143 304.278H340.989C340.857 304.295 340.723 304.295 340.591 304.278C340.723 304.264 340.857 304.264 340.989 304.278H342.143L346.376 304.223L360.345 304.177L374.33 304.2L378.563 304.255H379.717C379.842 304.25 379.967 304.258 380.09 304.278V304.278Z" fill="#E0E0E0"/>
<path id="Vector_9" d="M380.09 309.886C379.958 309.9 379.824 309.9 379.692 309.886H378.538L374.305 309.941L360.345 309.988L346.376 309.941L342.143 309.886H340.989C340.857 309.9 340.723 309.9 340.591 309.886C340.721 309.856 340.855 309.843 340.989 309.847H342.143L346.376 309.8L360.345 309.746L374.305 309.8L378.538 309.847H379.692C379.826 309.843 379.96 309.856 380.09 309.886V309.886Z" fill="#E0E0E0"/>
<path id="Vector_10" d="M160.972 89.7578C175 76.5743 175 55.1997 160.972 42.0162C146.943 28.8327 124.198 28.8327 110.17 42.0162C96.1412 55.1997 96.1412 76.5743 110.17 89.7578C124.198 102.941 146.943 102.941 160.972 89.7578Z" fill="#F5F5F5"/>
<path id="Vector_11" d="M151.89 66.924C151.47 66.9827 151.045 67.0088 150.62 67.002L147.126 67.0644C144.163 67.0644 140.038 67.1346 135.381 67.1346H135.149V64.74C135.149 59.8494 135.149 55.4268 135.215 52.26C135.215 50.7 135.273 49.4364 135.29 48.4614C135.277 47.997 135.308 47.5324 135.381 47.073C135.449 47.5329 135.48 47.9971 135.473 48.4614C135.473 49.4364 135.473 50.7156 135.547 52.26C135.547 55.4658 135.614 59.8884 135.614 64.74C135.614 65.52 135.614 66.2298 135.614 66.9318L135.39 66.7134C140.046 66.7134 144.171 66.7134 147.134 66.7836L150.628 66.8538C151.05 66.8398 151.473 66.8633 151.89 66.924Z" fill="#E0E0E0"/>
<path id="Vector_12" d="M135.481 37.674C135.709 38.6015 135.787 39.556 135.713 40.5054C135.787 41.4574 135.709 42.4144 135.481 43.3446C135.253 42.4144 135.175 41.4574 135.249 40.5054C135.174 39.556 135.253 38.6015 135.481 37.674V37.674Z" fill="#E0E0E0"/>
<path id="Vector_13" d="M151.89 42.2214C151.364 43.0238 150.709 43.7447 149.948 44.3586C149.298 45.0715 148.533 45.6847 147.682 46.176C148.21 45.3769 148.865 44.6587 149.624 44.0466C150.278 43.3354 151.042 42.7202 151.89 42.2214V42.2214Z" fill="#E0E0E0"/>
<path id="Vector_14" d="M161.418 52.0494C160.659 52.662 159.822 53.1858 158.928 53.6094C158.119 54.1541 157.245 54.607 156.322 54.9588C156.989 54.2498 157.791 53.665 158.688 53.235C159.507 52.6764 160.435 52.2736 161.418 52.0494Z" fill="#E0E0E0"/>
<path id="Vector_15" d="M167.029 66.6276C165.659 66.8498 164.267 66.923 162.879 66.846C161.491 66.923 160.099 66.8498 158.729 66.6276C160.1 66.4102 161.491 66.3369 162.879 66.4092C164.267 66.3369 165.659 66.4102 167.029 66.6276Z" fill="#E0E0E0"/>
<path id="Vector_16" d="M109.967 66.1128C108.686 66.328 107.382 66.4013 106.082 66.3312C104.783 66.4008 103.479 66.3275 102.198 66.1128C103.479 65.8981 104.783 65.8248 106.082 65.8944C107.382 65.8243 108.686 65.8976 109.967 66.1128V66.1128Z" fill="#E0E0E0"/>
<path id="Vector_17" d="M114.009 76.9704C113.132 77.9055 112.146 78.7453 111.071 79.4742C110.085 80.3067 109.001 81.0315 107.842 81.6348C108.714 80.6951 109.7 79.8547 110.78 79.131C111.759 78.2907 112.844 77.5652 114.009 76.9704V76.9704Z" fill="#E0E0E0"/>
<path id="Vector_18" d="M123.961 85.3632C123.381 86.4926 122.712 87.5798 121.96 88.6158C121.338 89.726 120.631 90.7922 119.844 91.806C120.223 90.5897 120.802 89.4368 121.562 88.3896C122.189 87.2698 122.999 86.2487 123.961 85.3632V85.3632Z" fill="#E0E0E0"/>
<path id="Vector_19" d="M135.481 96.1896C135.25 94.9018 135.172 93.5937 135.249 92.2896C135.172 90.9855 135.25 89.6775 135.481 88.3896C135.712 89.6775 135.79 90.9855 135.713 92.2896C135.79 93.5937 135.712 94.9018 135.481 96.1896Z" fill="#E0E0E0"/>
<path id="Vector_20" d="M153.218 91.0338C151.96 90.4962 150.812 89.7572 149.823 88.8498C148.738 88.051 147.803 87.0859 147.059 85.995C148.131 86.7841 149.157 87.6278 150.13 88.5222C151.207 89.3069 152.237 90.1453 153.218 91.0338V91.0338Z" fill="#E0E0E0"/>
<path id="Vector_21" d="M161.543 82.6098C160.535 81.9728 159.617 81.2179 158.812 80.3634C157.903 79.6066 157.1 78.7443 156.422 77.7972C157.427 78.4377 158.342 79.1951 159.144 80.0514C160.055 80.8058 160.861 81.6654 161.543 82.6098V82.6098Z" fill="#E0E0E0"/>
<path id="Vector_22" d="M113.627 55.7154C112.728 55.1791 111.917 54.5221 111.22 53.7654C110.415 53.1104 109.716 52.3484 109.145 51.5034C110.044 52.0397 110.855 52.6967 111.552 53.4534C112.357 54.1084 113.056 54.8704 113.627 55.7154V55.7154Z" fill="#E0E0E0"/>
<path id="Vector_23" d="M123.902 45.5442C123.019 45.0371 122.222 44.4088 121.537 43.68C120.749 43.0302 120.069 42.273 119.52 41.4336C120.402 41.9539 121.197 42.5954 121.877 43.3368C122.666 43.9733 123.349 44.7174 123.902 45.5442V45.5442Z" fill="#E0E0E0"/>
<g id="gear" opacity="0.8">
<path id="Vector_24" opacity="0.8" fill-rule="evenodd" clip-rule="evenodd" d="M330.954 48.5862C332.838 49.5091 334.585 50.6603 336.15 52.0104L341.669 50.1618L346.857 57.8604L342.707 61.7604C343.344 63.6562 343.707 65.6238 343.786 67.6104L349.081 69.9504L346.94 78.8736H341.13C340.154 80.6384 338.931 82.2726 337.495 83.733L339.462 88.92L331.27 93.795L327.12 89.895C325.103 90.4958 323.009 90.8395 320.895 90.9168L318.405 95.8854L308.943 93.8964V88.3896C307.063 87.4724 305.323 86.3205 303.772 84.9654L298.252 86.814L292.99 79.1388L297.14 75.2388C296.497 73.3541 296.123 71.3973 296.028 69.42L290.732 67.08L292.857 58.188H298.717C299.693 56.4213 300.919 54.7867 302.361 53.3286L300.394 48.1416L308.586 43.2666L312.736 47.1666C314.756 46.5665 316.852 46.2228 318.969 46.1448L321.459 41.1762L330.921 43.173V48.633L330.954 48.5862ZM322.613 59.0538C320.607 58.6315 318.513 58.7773 316.595 59.4728C314.677 60.1683 313.021 61.3824 311.837 62.9616C310.653 64.5408 309.994 66.4144 309.942 68.3456C309.891 70.2769 310.45 72.1791 311.548 73.8122C312.646 75.4452 314.235 76.7358 316.113 77.5208C317.991 78.3059 320.075 78.5502 322.101 78.2229C324.127 77.8957 326.004 77.0115 327.496 75.6821C328.987 74.3527 330.026 72.6377 330.481 70.7538C330.785 69.4999 330.822 68.2019 330.591 66.9344C330.36 65.6669 329.864 64.4547 329.133 63.3676C328.402 62.2805 327.45 61.3398 326.331 60.5995C325.212 59.8592 323.948 59.3339 322.613 59.0538V59.0538Z" fill="#EBEBEB"/>
</g>
<path id="Vector_25" d="M52.871 126.812H114.291C114.291 126.812 108.863 117.53 93.0596 118.88C77.9702 120.175 77.1983 114.317 69.5208 113.591C61.8433 112.866 55.4274 118.404 52.871 126.812Z" fill="#F5F5F5"/>
<path id="Vector_26" d="M185.754 231.715H235.446C235.446 231.715 231.055 224.203 218.265 225.295C206.047 226.34 205.425 221.598 199.175 221.013C192.925 220.428 187.821 224.905 185.754 231.715Z" fill="#F5F5F5"/>
</g>
<g id="freepik--Floor--inject-3">
<path id="Vector_27" d="M398.524 346.96C398.524 347.069 313.034 347.162 207.508 347.162C101.982 347.162 16.4755 347.1 16.4755 346.96C16.4755 346.819 101.965 346.757 207.508 346.757C313.051 346.757 398.524 346.85 398.524 346.96Z" fill="#263238"/>
</g>
<g id="freepik--Screens--inject-3">
<path id="Vector_28" d="M377.808 113.201H257.225V189.08H377.808V113.201Z" fill="white"/>
<path id="Vector_29" d="M377.808 189.072C377.808 189.072 377.808 188.596 377.808 187.691V183.69C377.808 180.18 377.808 175.024 377.758 168.433C377.758 155.243 377.708 136.297 377.667 113.201L377.841 113.357L257.267 113.404L257.483 113.201C257.483 140.228 257.483 165.929 257.483 189.072L257.283 188.885L344.159 188.978L368.976 189.025H375.575H377.285H375.625H369.059L344.284 189.072L257.283 189.166H257.084V188.978C257.084 165.836 257.084 140.135 257.084 113.108V112.897H257.308L377.882 112.944H378.057V113.108C378.057 136.25 377.99 155.228 377.965 168.433C377.965 175.016 377.965 180.133 377.924 183.659C377.924 185.398 377.924 186.732 377.924 187.637C377.924 188.542 377.808 189.072 377.808 189.072Z" fill="#F3DE8A"/>
<path id="Vector_30" d="M257.225 119.972C257.225 119.855 284.2 119.769 317.467 119.769C350.733 119.769 377.708 119.855 377.708 119.972C377.708 120.089 350.741 120.175 317.467 120.175C284.192 120.175 257.225 120.12 257.225 119.972Z" fill="#F3DE8A"/>
<g id="Group" opacity="0.3">
<path id="Vector_31" opacity="0.3" d="M261.981 116.555C261.981 116.736 261.924 116.913 261.817 117.063C261.71 117.213 261.558 117.33 261.38 117.399C261.202 117.468 261.006 117.486 260.818 117.45C260.629 117.414 260.456 117.326 260.321 117.198C260.185 117.069 260.093 116.906 260.057 116.729C260.02 116.551 260.041 116.367 260.115 116.201C260.19 116.034 260.316 115.892 260.477 115.793C260.637 115.693 260.826 115.641 261.018 115.643C261.146 115.643 261.271 115.666 261.389 115.712C261.506 115.758 261.613 115.826 261.702 115.911C261.792 115.995 261.862 116.096 261.91 116.207C261.958 116.317 261.982 116.436 261.981 116.555V116.555Z" fill="#F3DE8A"/>
</g>
<g id="Group_2" opacity="0.3">
<path id="Vector_32" opacity="0.3" d="M265.293 116.555C265.293 116.736 265.236 116.913 265.129 117.063C265.022 117.213 264.869 117.33 264.691 117.399C264.514 117.468 264.318 117.486 264.129 117.45C263.941 117.414 263.768 117.326 263.632 117.198C263.497 117.069 263.405 116.906 263.368 116.729C263.332 116.551 263.352 116.367 263.427 116.201C263.502 116.034 263.628 115.892 263.788 115.793C263.949 115.693 264.138 115.641 264.33 115.643C264.457 115.643 264.583 115.666 264.7 115.712C264.818 115.758 264.924 115.826 265.014 115.911C265.103 115.995 265.174 116.096 265.222 116.207C265.27 116.317 265.294 116.436 265.293 116.555V116.555Z" fill="#F3DE8A"/>
</g>
<g id="Group_3" opacity="0.3">
<path id="Vector_33" opacity="0.3" d="M268.555 116.555C268.555 116.736 268.498 116.913 268.391 117.063C268.283 117.213 268.131 117.33 267.953 117.399C267.775 117.468 267.58 117.486 267.391 117.45C267.203 117.414 267.03 117.326 266.894 117.198C266.759 117.069 266.667 116.906 266.63 116.729C266.594 116.551 266.614 116.367 266.689 116.201C266.764 116.034 266.889 115.892 267.05 115.793C267.211 115.693 267.4 115.641 267.592 115.643C267.719 115.643 267.845 115.666 267.962 115.712C268.08 115.758 268.186 115.826 268.276 115.911C268.365 115.995 268.436 116.096 268.484 116.207C268.532 116.317 268.556 116.436 268.555 116.555Z" fill="#F3DE8A"/>
</g>
<path id="Square-5" d="M299.755 127.881H267.592V158.106H299.755V127.881Z" fill="#ab87ff"/>
<path id="Vector_34" d="M361.274 136.422C361.274 136.539 348.724 136.625 333.253 136.625C317.782 136.625 305.232 136.539 305.232 136.422C305.232 136.305 317.782 136.219 333.253 136.219C348.724 136.219 361.274 136.313 361.274 136.422Z" fill="#F3DE8A"/>
<path id="Vector_35" d="M361.274 142.046C361.274 142.155 348.724 142.249 333.253 142.249C317.782 142.249 305.232 142.155 305.232 142.046C305.232 141.937 317.782 141.843 333.253 141.843C348.724 141.843 361.274 141.96 361.274 142.046Z" fill="#F3DE8A"/>
<path id="Vector_36" d="M361.274 147.662C361.274 147.771 348.724 147.865 333.253 147.865C317.782 147.865 305.232 147.771 305.232 147.662C305.232 147.553 317.782 147.459 333.253 147.459C348.724 147.459 361.274 147.545 361.274 147.662Z" fill="#F3DE8A"/>
<path id="Vector_37" d="M338.358 153.278C337.927 153.341 337.491 153.367 337.055 153.356L333.502 153.418C330.506 153.457 326.364 153.481 321.799 153.481C317.234 153.481 313.084 153.481 310.088 153.418L306.536 153.356C306.1 153.367 305.663 153.341 305.232 153.278C305.663 153.214 306.1 153.188 306.536 153.2L310.088 153.137C313.084 153.098 317.226 153.075 321.799 153.075C326.373 153.075 330.506 153.075 333.502 153.137L337.055 153.2C337.491 153.188 337.927 153.214 338.358 153.278V153.278Z" fill="#F3DE8A"/>
<g id="Group_4" opacity="0.3">
<path id="Vector_38" opacity="0.3" d="M284.715 168.301H269.601V182.504H284.715V168.301Z" fill="#F3DE8A"/>
</g>
<path id="Square-4" d="M312.13 168.301H297.015V182.504H312.13V168.301Z" fill="#ab87ff"/>
<path id="Square-3" d="M339.545 168.301H324.43V182.504H339.545V168.301Z" fill="#ab87ff"/>
<path id="Square-2" d="M366.96 168.301H351.845V182.504H366.96V168.301Z" fill="#ab87ff"/>
<path id="Vector_39" d="M144.113 140.533H36.6943V181.537H144.113V140.533Z" fill="white"/>
<path id="Vector_40" d="M144.113 181.537C144.113 181.537 144.113 181.288 144.113 180.804C144.113 180.32 144.113 179.611 144.113 178.675C144.113 176.803 144.113 174.057 144.113 170.516C144.113 163.441 144.113 153.2 144.046 140.533L144.163 140.642L36.7524 140.689L36.9267 140.533C36.9267 154.892 36.9267 168.753 36.9267 181.537L36.7607 181.381L113.776 181.451L136.12 181.498H142.104H143.648H142.137H136.195L113.893 181.537L36.7607 181.607H36.52V140.4H36.6943L144.105 140.455H144.229V140.564C144.229 153.262 144.179 163.519 144.163 170.617C144.163 174.143 144.163 176.857 144.163 178.753C144.163 179.673 144.163 180.375 144.163 180.859C144.163 181.342 144.113 181.537 144.113 181.537Z" fill="#F3DE8A"/>
<path id="Vector_41" d="M36.8021 146.063C36.8021 145.977 60.814 145.899 90.4201 145.899C120.026 145.899 144.055 145.977 144.055 146.063C144.055 146.149 120.043 146.219 90.4201 146.219C60.7974 146.219 36.8021 146.149 36.8021 146.063Z" fill="#F3DE8A"/>
<g id="Group_5" opacity="0.3">
<path id="Vector_42" opacity="0.3" d="M41.3009 143.59C41.3009 143.735 41.2551 143.877 41.1694 143.998C41.0837 144.118 40.9618 144.212 40.8192 144.268C40.6767 144.323 40.5198 144.338 40.3685 144.309C40.2171 144.281 40.0781 144.211 39.969 144.109C39.8599 144.006 39.7856 143.875 39.7555 143.733C39.7254 143.591 39.7408 143.444 39.7999 143.31C39.8589 143.176 39.9589 143.061 40.0872 142.981C40.2155 142.9 40.3664 142.857 40.5207 142.857C40.7276 142.857 40.926 142.934 41.0724 143.072C41.2187 143.209 41.3009 143.396 41.3009 143.59V143.59Z" fill="#F3DE8A"/>
</g>
<g id="Group_6" opacity="0.3">
<path id="Vector_43" opacity="0.3" d="M43.99 143.59C43.99 143.735 43.9442 143.877 43.8585 143.998C43.7727 144.118 43.6509 144.212 43.5083 144.268C43.3658 144.323 43.2089 144.338 43.0575 144.309C42.9062 144.281 42.7672 144.211 42.6581 144.109C42.549 144.006 42.4746 143.875 42.4445 143.733C42.4144 143.591 42.4299 143.444 42.4889 143.31C42.548 143.176 42.648 143.061 42.7763 142.981C42.9046 142.9 43.0554 142.857 43.2098 142.857C43.4167 142.857 43.6151 142.934 43.7614 143.072C43.9078 143.209 43.99 143.396 43.99 143.59V143.59Z" fill="#F3DE8A"/>
</g>
<g id="Group_7" opacity="0.3">
<path id="Vector_44" opacity="0.3" d="M46.6045 143.59C46.6045 143.735 46.5587 143.877 46.473 143.998C46.3873 144.118 46.2654 144.212 46.1229 144.268C45.9803 144.323 45.8234 144.338 45.6721 144.309C45.5207 144.281 45.3817 144.211 45.2726 144.109C45.1635 144.006 45.0892 143.875 45.0591 143.733C45.029 143.591 45.0444 143.444 45.1035 143.31C45.1625 143.176 45.2625 143.061 45.3908 142.981C45.5191 142.9 45.67 142.857 45.8243 142.857C46.0312 142.857 46.2297 142.934 46.376 143.072C46.5223 143.209 46.6045 143.396 46.6045 143.59V143.59Z" fill="#F3DE8A"/>
</g>
<path id="Square-1" d="M71.7701 152.724H45.8243V177.107H71.7701V152.724Z" fill="#ab87ff"/>
<path id="Vector_45" d="M136.684 159.26C136.684 159.346 123.33 159.424 106.862 159.424C90.3952 159.424 77.0405 159.346 77.0405 159.26C77.0405 159.175 90.3952 159.104 106.862 159.104C123.33 159.104 136.684 159.175 136.684 159.26Z" fill="#F3DE8A"/>
<path id="Vector_46" d="M136.684 164.229C136.684 164.315 123.33 164.385 106.862 164.385C90.3952 164.385 77.0405 164.315 77.0405 164.229C77.0405 164.143 90.3952 164.065 106.862 164.065C123.33 164.065 136.684 164.143 136.684 164.229Z" fill="#F3DE8A"/>
<path id="Vector_47" d="M115.436 169.198C115.306 169.206 115.176 169.206 115.046 169.198H113.926L109.817 169.244L96.2385 169.291L82.668 169.244L78.518 169.198H77.3975C77.2676 169.205 77.1373 169.205 77.0074 169.198C77.1367 169.18 77.2681 169.18 77.3975 169.198H78.518L82.668 169.143L96.2385 169.096L109.817 169.143L113.926 169.198H115.046C115.176 169.179 115.307 169.179 115.436 169.198V169.198Z" fill="#F3DE8A"/>
</g>
<g id="freepik--Rocket--inject-3">
<path id="Vector_48" d="M223.046 89.0058C221.245 87.8748 218.771 88.5612 216.97 89.6922C215.169 90.8232 213.65 92.3676 211.617 93.1008C207.832 94.4814 202.86 92.8434 199.922 95.4408C198.055 97.11 197.864 99.8556 196.436 101.876C194.029 105.277 188.252 106.556 187.763 110.612C187.472 112.952 189.464 115.245 191.913 115.908C193.15 116.181 194.434 116.201 195.68 115.967C196.926 115.732 198.104 115.25 199.134 114.551C201.624 112.991 203.541 110.651 206.346 109.762C209.152 108.872 212.762 109.613 215.028 107.734C217.294 105.854 216.954 102.383 218.581 99.9804C219.559 98.773 220.719 97.7061 222.025 96.8136C223.245 95.823 224.407 94.5984 224.615 93.093C224.822 91.5876 224.166 89.0214 223.063 88.9668" fill="#F5F5F5"/>
<path id="Vector_49" d="M176.276 254.717C176.383 254.662 176.715 254.974 177.031 255.419C177.346 255.863 177.521 256.285 177.421 256.347C177.321 256.409 176.989 256.097 176.666 255.645C176.342 255.193 176.176 254.779 176.276 254.717Z" fill="#263238"/>
<path id="Vector_50" d="M172.723 247.681C173.171 248.191 173.507 248.78 173.711 249.413C174.039 249.996 174.239 250.635 174.3 251.293C173.516 250.204 172.979 248.974 172.723 247.681V247.681Z" fill="#263238"/>
<path id="Vector_51" d="M170.798 240.1C171.329 241.316 171.587 242.623 171.553 243.937C171.222 243.355 171.021 242.715 170.964 242.057C170.769 241.422 170.713 240.756 170.798 240.1Z" fill="#263238"/>
<path id="Vector_52" d="M170.507 232.307C170.77 233.598 170.75 234.925 170.449 236.207C170.238 235.578 170.173 234.913 170.258 234.257C170.193 233.598 170.278 232.934 170.507 232.307Z" fill="#263238"/>
<path id="Vector_53" d="M171.81 224.64C171.877 225.298 171.801 225.961 171.586 226.59C171.503 227.245 171.283 227.879 170.939 228.454C170.872 227.797 170.948 227.133 171.163 226.504C171.247 225.849 171.467 225.216 171.81 224.64V224.64Z" fill="#263238"/>
<path id="Vector_54" d="M174.831 217.347C174.554 218.63 173.988 219.843 173.171 220.904C173.254 220.247 173.477 219.613 173.827 219.04C174.3 218.049 174.723 217.292 174.831 217.347Z" fill="#263238"/>
<path id="Vector_55" d="M179.405 210.842C179.175 211.467 178.813 212.043 178.342 212.534C177.969 213.091 177.494 213.583 176.939 213.985C176.823 213.915 177.305 213.158 177.994 212.293C178.682 211.427 179.28 210.772 179.405 210.842Z" fill="#263238"/>
<path id="Vector_56" d="M184.982 205.07C185.073 205.148 184.501 205.85 183.712 206.63C182.924 207.41 182.21 207.971 182.119 207.901C182.027 207.831 182.6 207.121 183.397 206.341C184.194 205.561 184.899 204.984 184.982 205.07Z" fill="#263238"/>
<path id="Vector_57" d="M190.825 199.516C190.917 199.594 190.327 200.296 189.522 201.076C188.717 201.856 187.995 202.402 187.912 202.324C187.829 202.246 188.41 201.544 189.215 200.764C190.02 199.984 190.742 199.438 190.825 199.516Z" fill="#263238"/>
<path id="Vector_58" d="M196.287 193.635C196.024 194.249 195.631 194.806 195.133 195.273C194.403 196.115 193.739 196.732 193.647 196.654C193.918 196.044 194.309 195.488 194.801 195.016C195.523 194.22 196.187 193.573 196.287 193.635Z" fill="#263238"/>
<path id="Vector_59" d="M200.52 186.943C200.445 187.604 200.207 188.24 199.822 188.799C199.559 189.417 199.147 189.97 198.619 190.414C198.78 189.772 199.061 189.161 199.449 188.612C199.703 188.003 200.065 187.438 200.52 186.943V186.943Z" fill="#263238"/>
<path id="Vector_60" d="M202.52 179.4C202.682 180.048 202.668 180.724 202.479 181.366C202.431 182.032 202.211 182.677 201.839 183.245C201.797 182.591 201.87 181.935 202.055 181.303C202.1 180.649 202.257 180.007 202.52 179.4V179.4Z" fill="#263238"/>
<path id="Vector_61" d="M201.923 171.655C202.29 172.223 202.502 172.87 202.537 173.534C202.707 174.182 202.707 174.86 202.537 175.508C202.275 174.899 202.124 174.253 202.089 173.597C201.922 172.962 201.866 172.306 201.923 171.655V171.655Z" fill="#263238"/>
<path id="Vector_62" d="M198.661 164.518C198.76 164.455 199.366 165.134 199.914 166.078C200.309 166.632 200.554 167.27 200.628 167.934C200.171 167.439 199.801 166.878 199.532 166.273C199.148 165.733 198.854 165.141 198.661 164.518Z" fill="#263238"/>
<path id="Vector_63" d="M192.876 158.98C193.552 159.179 194.167 159.53 194.668 160.001C195.556 160.703 196.137 161.405 196.054 161.483C195.971 161.561 195.224 161 194.394 160.313C193.564 159.627 192.801 159.073 192.876 158.98Z" fill="#263238"/>
<path id="Vector_64" d="M185.331 155.813C186.038 155.772 186.745 155.895 187.389 156.172C188.082 156.322 188.724 156.633 189.257 157.076C188.562 157.003 187.884 156.826 187.248 156.554C186.569 156.411 185.92 156.16 185.331 155.813Z" fill="#263238"/>
<path id="Vector_65" d="M177.081 155.462C177.716 155.164 178.422 155.024 179.131 155.056C179.835 154.958 180.554 155.028 181.222 155.259C180.548 155.424 179.851 155.492 179.156 155.462C178.468 155.564 177.768 155.564 177.081 155.462Z" fill="#263238"/>
<path id="Vector_66" d="M169.428 158.34C169.353 158.246 170.067 157.661 171.088 157.147C171.676 156.768 172.361 156.544 173.072 156.499C172.531 156.911 171.93 157.247 171.287 157.498C170.716 157.864 170.089 158.148 169.428 158.34V158.34Z" fill="#263238"/>
<path id="Vector_67" d="M163.726 163.94C163.906 163.294 164.258 162.701 164.747 162.217C165.452 161.351 166.183 160.781 166.266 160.859C166.349 160.937 165.776 161.639 165.087 162.466C164.398 163.293 163.825 163.995 163.726 163.94Z" fill="#263238"/>
<path id="Vector_68" d="M160.928 171.226C160.798 170.569 160.852 169.891 161.086 169.26C161.191 168.595 161.477 167.966 161.916 167.435C161.89 168.089 161.759 168.736 161.526 169.354C161.43 170.003 161.229 170.634 160.928 171.226V171.226Z" fill="#263238"/>
<path id="Vector_69" d="M161.916 178.909C161.477 178.378 161.191 177.749 161.086 177.083C160.848 176.453 160.791 175.775 160.92 175.118C161.208 175.713 161.407 176.343 161.51 176.99C161.743 177.608 161.88 178.254 161.916 178.909V178.909Z" fill="#263238"/>
<path id="Vector_70" d="M166.125 185.585C166.033 185.663 165.344 185.055 164.672 184.166C164.202 183.666 163.869 183.066 163.701 182.419C163.809 182.364 164.357 183.066 165.021 183.932C165.482 184.423 165.855 184.981 166.125 185.585V185.585Z" fill="#263238"/>
<path id="Vector_71" d="M172.233 190.85C171.563 190.639 170.953 190.287 170.449 189.821C169.544 189.142 168.922 188.479 169.005 188.393C169.638 188.671 170.216 189.048 170.714 189.509C171.602 190.18 172.308 190.757 172.233 190.85Z" fill="#263238"/>
<path id="Vector_72" d="M179.429 194.727C178.077 194.388 176.816 193.785 175.728 192.956C176.42 193.068 177.083 193.307 177.678 193.658C178.333 193.9 178.929 194.263 179.429 194.727V194.727Z" fill="#263238"/>
<path id="Vector_73" d="M187.331 197.09C186.627 197.166 185.913 197.086 185.248 196.856C184.547 196.759 183.881 196.505 183.305 196.115C184.005 196.125 184.698 196.244 185.356 196.466C186.048 196.563 186.717 196.774 187.331 197.09V197.09Z" fill="#263238"/>
<path id="Vector_74" d="M195.598 197.488C194.249 197.878 192.812 197.905 191.448 197.566C192.121 197.399 192.82 197.341 193.515 197.395C194.21 197.317 194.914 197.349 195.598 197.488V197.488Z" fill="#263238"/>
<path id="Vector_75" d="M203.582 195.484C202.442 196.262 201.089 196.72 199.681 196.802C200.267 196.443 200.912 196.179 201.59 196.022C202.217 195.737 202.891 195.555 203.582 195.484V195.484Z" fill="#263238"/>
<path id="Vector_76" d="M210.505 191.217C210.588 191.303 209.957 191.997 209.036 192.621C208.52 193.076 207.897 193.41 207.218 193.596C207.151 193.495 207.874 192.956 208.778 192.301C209.289 191.856 209.872 191.49 210.505 191.217V191.217Z" fill="#263238"/>
<path id="Vector_77" d="M215.908 185.32C215.716 185.96 215.366 186.548 214.887 187.036C214.198 187.91 213.509 188.51 213.418 188.44C213.327 188.37 213.866 187.66 214.547 186.794C215.227 185.929 215.8 185.258 215.908 185.32Z" fill="#263238"/>
<path id="Vector_78" d="M219.502 178.3C219.499 178.966 219.326 179.622 218.996 180.211C218.564 181.225 218.058 181.974 217.95 181.919C218.05 181.271 218.266 180.643 218.589 180.063C218.788 179.432 219.097 178.837 219.502 178.3V178.3Z" fill="#263238"/>
<path id="Vector_79" d="M221.112 170.664C221.292 171.975 221.097 173.308 220.548 174.525C220.525 173.218 220.715 171.916 221.112 170.664V170.664Z" fill="#263238"/>
<path id="Vector_80" d="M220.896 162.872C221.167 163.481 221.297 164.138 221.278 164.798C221.397 165.451 221.377 166.119 221.22 166.764C220.83 165.498 220.72 164.171 220.896 162.864V162.872Z" fill="#263238"/>
<path id="Vector_81" d="M219.12 155.259C219.505 155.814 219.762 156.438 219.875 157.092C220.125 157.709 220.238 158.367 220.207 159.026C219.827 158.47 219.57 157.846 219.452 157.193C219.202 156.577 219.089 155.918 219.12 155.259V155.259Z" fill="#263238"/>
<path id="Vector_82" d="M215.916 148.052C216.024 147.997 216.522 148.746 217.02 149.721C217.371 150.296 217.592 150.934 217.668 151.593C216.873 150.515 216.28 149.318 215.916 148.052V148.052Z" fill="#263238"/>
<path id="Vector_83" d="M211.833 141.258C211.941 141.196 212.488 141.905 213.069 142.818C213.473 143.354 213.755 143.962 213.899 144.604C213.383 144.165 212.963 143.635 212.663 143.044C212.266 142.505 211.984 141.898 211.833 141.258Z" fill="#263238"/>
<path id="Vector_84" d="M207.716 134.48C207.824 134.425 208.355 135.151 208.911 136.087C209.312 136.632 209.594 137.247 209.741 137.896C209.233 137.438 208.827 136.889 208.546 136.282C208.14 135.741 207.857 135.128 207.716 134.48V134.48Z" fill="#263238"/>
<path id="Vector_85" d="M204.47 127.304C205.222 128.414 205.717 129.66 205.923 130.962C205.484 130.443 205.167 129.842 204.993 129.199C204.684 128.607 204.506 127.962 204.47 127.304V127.304Z" fill="#263238"/>
<path id="Vector_86" d="M203.06 119.636C203.304 120.253 203.427 120.905 203.425 121.563C203.569 122.204 203.594 122.864 203.499 123.513C203.172 122.923 203.002 122.267 203.001 121.602C202.858 120.951 202.878 120.278 203.06 119.636V119.636Z" fill="#263238"/>
<path id="Vector_87" d="M203.748 111.875C203.814 112.529 203.764 113.188 203.599 113.825C203.569 114.483 203.415 115.13 203.143 115.736C202.982 115.087 202.982 114.412 203.143 113.763C203.183 113.098 203.391 112.451 203.748 111.875V111.875Z" fill="#263238"/>
<path id="Vector_88" d="M206.454 104.52C206.349 105.17 206.124 105.798 205.79 106.376C205.584 107.004 205.267 107.595 204.852 108.124C205.029 106.808 205.582 105.562 206.454 104.52V104.52Z" fill="#263238"/>
<path id="Vector_89" d="M211.077 98.0538C211.169 98.1318 210.621 98.8338 209.924 99.684C209.226 100.534 208.637 101.244 208.538 101.143C208.734 100.502 209.093 99.9163 209.583 99.4344C210.289 98.5764 210.994 97.9836 211.077 98.0538Z" fill="#263238"/>
<path id="Vector_90" d="M217.311 92.9214C217.377 93.015 216.655 93.5688 215.759 94.224C215.25 94.675 214.663 95.0416 214.024 95.3082C213.941 95.2224 214.58 94.5282 215.493 93.9042C216.008 93.4471 216.631 93.1104 217.311 92.9214V92.9214Z" fill="#263238"/>
<path id="Vector_91" d="M224.698 89.3958C224.139 89.7904 223.513 90.0936 222.847 90.2928C222.239 90.6141 221.576 90.8332 220.888 90.9402C220.83 90.8388 221.618 90.3552 222.681 89.9262C223.297 89.5979 223.989 89.4159 224.698 89.3958V89.3958Z" fill="#263238"/>
<path id="Vector_92" d="M230.74 87.9606C230.74 88.0698 230.317 88.2414 229.761 88.335C229.205 88.4286 228.723 88.4286 228.698 88.335C228.673 88.2414 229.113 88.0542 229.678 87.9528C230.242 87.8514 230.74 87.8514 230.74 87.9606Z" fill="#263238"/>
<path id="Vector_93" d="M247.656 64.9974C247.656 64.9974 257.4 58.461 270.896 62.6574C270.896 62.6574 271.999 73.1562 261.185 81.5022" fill="#F3DE8A"/>
<path id="Vector_94" d="M216.921 84.3882C217.336 84.9732 227.918 100.955 227.918 100.955L259.682 82.563C260.993 81.8037 262.122 80.7967 262.998 79.606C263.873 78.4152 264.476 77.0666 264.767 75.6456C265.059 74.2245 265.034 72.762 264.693 71.3506C264.352 69.9393 263.703 68.6099 262.786 67.4466V67.4466C261.084 65.2874 258.561 63.828 255.743 63.3718C252.925 62.9157 250.028 63.4979 247.655 64.9974L216.921 84.3882Z" fill="#F3DE8A"/>
<path id="Vector_95" d="M227.918 100.955L227.204 112.203C227.204 112.203 247.788 102.843 242.651 92.4222L227.918 100.955Z" fill="#263238"/>
<path id="Vector_96" d="M231.637 75.1062C231.637 75.1062 217.676 69.3186 206.189 77.805L216.921 84.3882L231.637 75.1062Z" fill="#263238"/>
<path id="Vector_97" d="M231.57 84.396L211.708 96.096C211.708 96.096 212.389 98.1084 212.92 97.9368C213.451 97.7652 228.3 89.5128 233.139 86.8218C233.324 86.7184 233.483 86.5786 233.605 86.4121C233.727 86.2455 233.809 86.0561 233.847 85.8569C233.884 85.6576 233.874 85.4532 233.82 85.2576C233.765 85.062 233.666 84.8799 233.529 84.7236V84.7236C233.301 84.4539 232.976 84.2717 232.615 84.2114C232.255 84.1511 231.883 84.2167 231.57 84.396V84.396Z" fill="#263238"/>
<path id="Vector_98" d="M256.032 76.9135C256.836 73.7014 254.717 70.4848 251.299 69.7291C247.881 68.9733 244.459 70.9646 243.655 74.1767C242.85 77.3888 244.969 80.6053 248.387 81.3611C251.805 82.1168 255.228 80.1256 256.032 76.9135Z" fill="#FAFAFA"/>
<path id="Vector_99" d="M256.196 75.543C256.146 75.543 256.196 75.0126 255.914 74.1078C255.543 72.8268 254.725 71.7004 253.59 70.9098C252.819 70.3663 251.924 70.0003 250.976 69.8412C249.891 69.6595 248.774 69.751 247.739 70.1064C246.581 70.4914 245.575 71.1954 244.85 72.1266C244.074 73.1162 243.655 74.3134 243.655 75.543C243.655 76.7726 244.074 77.9698 244.85 78.9594C245.568 79.8858 246.561 80.5915 247.705 80.9874C248.741 81.3424 249.857 81.4339 250.942 81.2526C251.891 81.0935 252.786 80.7275 253.557 80.184C254.69 79.3917 255.508 78.2659 255.881 76.986C256.138 76.0812 256.113 75.543 256.163 75.543C256.185 75.6722 256.185 75.8038 256.163 75.933C256.161 76.3009 256.113 76.6673 256.022 77.025C255.741 78.1608 255.115 79.1956 254.221 80.0041C253.327 80.8126 252.202 81.3601 250.984 81.5802C249.771 81.8033 248.516 81.6973 247.365 81.2746C246.214 80.8519 245.215 80.13 244.485 79.1934C243.65 78.1383 243.198 76.8581 243.198 75.543C243.198 74.2278 243.65 72.9477 244.485 71.8926C245.253 70.9063 246.321 70.1613 247.548 69.7554C248.576 69.4052 249.683 69.3066 250.763 69.469C251.843 69.6314 252.862 70.0494 253.723 70.6836C254.912 71.5265 255.746 72.7362 256.08 74.1C256.171 74.4577 256.219 74.8241 256.221 75.192C256.232 75.3095 256.223 75.4278 256.196 75.543V75.543Z" fill="#263238"/>
<path id="Vector_100" d="M263.94 79.56C263.857 79.56 263.766 78.3978 263.276 76.5804C262.986 75.5174 262.617 74.4748 262.172 73.4604C261.066 70.9841 259.504 68.7107 257.557 66.7446C256.76 65.9447 255.903 65.1992 254.993 64.5138C253.424 63.3516 252.337 62.79 252.378 62.7198C252.655 62.807 252.92 62.9248 253.167 63.0708C253.472 63.2196 253.768 63.3836 254.055 63.5622C254.387 63.7728 254.777 63.9912 255.175 64.2876C256.129 64.9474 257.02 65.6833 257.84 66.4872C259.867 68.4531 261.464 70.7748 262.537 73.32C262.976 74.3547 263.323 75.4217 263.575 76.5102C263.699 76.9704 263.749 77.3994 263.816 77.7738C263.871 78.0914 263.907 78.4117 263.923 78.7332C263.971 79.0066 263.977 79.2851 263.94 79.56V79.56Z" fill="#263238"/>
<path id="Vector_101" d="M262.23 80.3868C262.147 80.3868 262.048 79.209 261.55 77.3604C261.254 76.2818 260.88 75.2237 260.429 74.1936C259.863 72.9374 259.189 71.727 258.412 70.5744C257.621 69.4325 256.733 68.3526 255.756 67.3452C254.947 66.5257 254.076 65.7619 253.15 65.0598C251.565 63.8664 250.461 63.2892 250.502 63.219C250.794 63.3087 251.073 63.4318 251.332 63.5856C251.639 63.7374 251.936 63.9067 252.22 64.0926C252.561 64.3032 252.959 64.5372 253.358 64.8726C254.314 65.5411 255.213 66.2792 256.047 67.08C257.059 68.0906 257.973 69.1843 258.778 70.3482C259.563 71.5229 260.238 72.76 260.794 74.0454C261.239 75.0984 261.591 76.1835 261.849 77.2902C261.973 77.7582 262.023 78.195 262.089 78.5694C262.15 78.8917 262.189 79.2174 262.205 79.5444C262.247 79.8234 262.255 80.106 262.23 80.3868V80.3868Z" fill="#263238"/>
</g>
<g id="freepik--Chart--inject-3">
<path id="Chart-4" d="M339.835 224.453H334.05V242.018H339.835V224.453Z" fill="#ab87ff"/>
<path id="Chart-3" d="M350.484 217.222H344.699V242.011H350.484V217.222Z" fill="#ab87ff"/>
<path id="Chart-2" d="M361.814 213.845H356.029V242.011H361.814V213.845Z" fill="#ab87ff"/>
<path id="Chart-1" d="M373.152 210.288H367.366V242.018H373.152V210.288Z" fill="#ab87ff"/>
</g>
<g id="freepik--Gears--inject-3">
<g id="Gear-3">
<path id="Vector_102" d="M139.042 247.26C139.475 247.317 139.896 247.441 140.287 247.627C141.205 248.048 141.974 248.709 142.503 249.531C143.031 250.352 143.296 251.3 143.266 252.26C143.241 253.165 142.954 254.047 142.436 254.81C141.862 255.66 141.033 256.33 140.054 256.737C139.003 257.176 137.828 257.285 136.705 257.048C135.583 256.81 134.571 256.239 133.821 255.419C133.474 255.033 133.194 254.599 132.991 254.132C132.776 253.687 132.638 253.213 132.584 252.728C132.464 251.828 132.605 250.915 132.991 250.084C133.396 249.202 134.066 248.451 134.917 247.92C135.769 247.39 136.767 247.104 137.788 247.096C138.227 247.081 138.665 247.136 139.083 247.26C139.083 247.26 138.618 247.174 137.797 247.205C136.626 247.249 135.505 247.664 134.618 248.383C134.006 248.869 133.526 249.484 133.215 250.177C132.863 250.973 132.74 251.842 132.858 252.697C132.919 253.155 133.053 253.602 133.257 254.023C133.462 254.468 133.742 254.879 134.087 255.239C134.8 256.009 135.756 256.545 136.817 256.768C137.877 256.991 138.985 256.89 139.98 256.48C140.454 256.289 140.892 256.026 141.274 255.7C141.654 255.401 141.982 255.048 142.245 254.654C142.632 254.085 142.888 253.445 142.998 252.778C143.107 252.11 143.068 251.428 142.882 250.775C142.696 250.122 142.368 249.513 141.919 248.986C141.469 248.459 140.908 248.025 140.27 247.712C139.498 247.346 139.033 247.26 139.042 247.26Z" fill="#ab87ff"/>
<path id="Vector_103" d="M143.258 241.948C143.254 241.891 143.254 241.834 143.258 241.777C143.258 241.644 143.258 241.472 143.258 241.246C143.258 240.763 143.258 240.068 143.258 239.164L143.3 239.21L138.51 238.228L138.593 238.189L137.332 240.708V240.755H137.274C136.213 240.798 135.164 240.974 134.153 241.277H134.095L134.053 241.238L131.945 239.281H131.97L127.82 241.761L127.87 241.628L128.866 244.249V244.312L128.816 244.366C128.1 245.1 127.489 245.918 126.998 246.8V246.862H126.99H124.035L124.16 246.761C123.828 248.173 123.463 249.694 123.097 251.254L123.023 251.105L125.695 252.299L125.77 252.338V252.416C125.817 253.408 125.998 254.391 126.309 255.341V255.419L126.243 255.481L124.151 257.455V257.283L126.774 261.183L126.6 261.121L129.389 260.185H129.48L129.546 260.239C130.318 260.915 131.184 261.489 132.119 261.947V261.947C132.161 262.002 132.045 261.823 132.202 262.072V264.849L132.086 264.709L136.867 265.723L136.701 265.801C137.124 264.95 137.531 264.116 137.971 263.281L138.012 263.211H138.104C139.158 263.174 140.202 263.003 141.208 262.704H141.299L141.357 262.759L143.457 264.732H143.275L147.425 262.275L147.367 262.423C147.026 261.534 146.703 260.66 146.371 259.802V259.732L146.429 259.67C147.149 258.941 147.763 258.125 148.255 257.244V257.182H151.292L151.176 257.275C151.558 255.715 151.915 254.202 152.255 252.775L152.322 252.899L149.649 251.698H149.591V251.636C149.555 250.64 149.376 249.654 149.06 248.703V248.648V248.609L151.16 246.636V246.745L148.553 242.845H148.636L145.839 243.758C145.252 243.246 144.616 242.787 143.939 242.385L143.424 242.096L143.258 241.995L143.441 242.073L143.964 242.338C144.656 242.727 145.307 243.179 145.906 243.688H145.856L148.636 242.736H148.686V242.783L151.326 246.683V246.737L151.276 246.792L149.193 248.765V248.672C149.522 249.639 149.709 250.644 149.749 251.659L149.691 251.573L152.371 252.759L152.454 252.798V252.884C152.122 254.303 151.766 255.793 151.392 257.377V257.47H148.329L148.446 257.408C147.946 258.309 147.321 259.143 146.586 259.888V259.763C146.91 260.621 147.25 261.495 147.582 262.384L147.624 262.486L147.524 262.54L143.374 265.005L143.275 265.067L143.192 264.989L141.092 263.024H141.241C140.209 263.332 139.136 263.508 138.054 263.546L138.178 263.468C137.763 264.295 137.348 265.138 136.909 265.98L136.859 266.081H136.743L131.962 265.075H131.846V262.08C132.003 262.33 131.846 262.15 131.929 262.205C130.969 261.736 130.081 261.149 129.289 260.458H129.439L126.65 261.386L126.534 261.425L126.475 261.331L123.853 257.431L123.786 257.338L123.869 257.26L125.961 255.286V255.427C125.636 254.456 125.449 253.448 125.405 252.431L125.488 252.541L122.84 251.386L122.74 251.339V251.238L123.819 246.745V246.644H126.99L126.882 246.706C127.381 245.807 128.006 244.976 128.741 244.234V244.351L127.754 241.722V241.636L127.837 241.589L131.987 239.132L132.061 239.093L132.128 239.148L134.219 241.121H134.12C135.148 240.819 136.214 240.649 137.29 240.614L137.216 240.661L138.502 238.15V238.095H138.56L143.333 239.132H143.374C143.374 240.029 143.374 240.692 143.374 241.199C143.374 241.426 143.374 241.605 143.374 241.73C143.341 241.805 143.302 241.878 143.258 241.948Z" fill="#ab87ff"/>
</g>
<g id="Gear-2">
<path id="Vector_104" fill-rule="evenodd" clip-rule="evenodd" d="M134.228 206.957C135.276 207.472 136.247 208.115 137.116 208.868L140.204 207.839L143.1 212.137L140.793 214.321C141.147 215.383 141.351 216.484 141.399 217.597L144.354 218.915L143.167 223.86H139.897C139.346 224.845 138.66 225.758 137.855 226.574L138.959 229.476L134.377 232.198L132.053 230.1C130.925 230.432 129.756 230.623 128.575 230.669L127.173 233.446L121.886 232.331V229.258C120.836 228.742 119.865 228.097 118.997 227.339L115.91 228.376L113.005 224.071L115.32 221.894C114.968 220.832 114.764 219.73 114.714 218.618L111.76 217.3L112.938 212.332H116.2C116.746 211.345 117.43 210.432 118.234 209.617L117.146 206.7L121.72 203.97L124.044 206.146C125.174 205.814 126.346 205.622 127.53 205.577L128.932 202.8L134.219 203.915V206.989L134.228 206.957ZM129.563 212.807C128.442 212.572 127.272 212.653 126.2 213.043C125.129 213.432 124.204 214.11 123.543 214.993C122.882 215.876 122.514 216.923 122.486 218.003C122.458 219.082 122.771 220.145 123.386 221.057C124 221.969 124.889 222.689 125.939 223.127C126.989 223.564 128.153 223.7 129.285 223.516C130.417 223.331 131.466 222.836 132.298 222.092C133.13 221.348 133.71 220.389 133.962 219.336C134.13 218.636 134.149 217.911 134.019 217.204C133.889 216.497 133.611 215.821 133.203 215.215C132.794 214.608 132.263 214.084 131.638 213.67C131.013 213.257 130.308 212.964 129.563 212.807V212.807Z" fill="#1A2151"/>
<g id="Group_8" opacity="0.8">
<path id="Vector_105" opacity="0.8" fill-rule="evenodd" clip-rule="evenodd" d="M134.228 206.957C135.276 207.472 136.247 208.115 137.116 208.868L140.204 207.839L143.1 212.137L140.793 214.321C141.147 215.383 141.351 216.484 141.399 217.597L144.354 218.915L143.167 223.86H139.897C139.346 224.845 138.66 225.758 137.855 226.574L138.959 229.476L134.377 232.198L132.053 230.1C130.925 230.432 129.756 230.623 128.575 230.669L127.173 233.446L121.886 232.331V229.258C120.836 228.742 119.865 228.097 118.997 227.339L115.91 228.376L113.005 224.071L115.32 221.894C114.968 220.832 114.764 219.73 114.714 218.618L111.76 217.3L112.938 212.332H116.2C116.746 211.345 117.43 210.432 118.234 209.617L117.146 206.7L121.72 203.97L124.044 206.146C125.174 205.814 126.346 205.622 127.53 205.577L128.932 202.8L134.219 203.915V206.989L134.228 206.957ZM129.563 212.807C128.442 212.572 127.272 212.653 126.2 213.043C125.129 213.432 124.204 214.11 123.543 214.993C122.882 215.876 122.514 216.923 122.486 218.003C122.458 219.082 122.771 220.145 123.386 221.057C124 221.969 124.889 222.689 125.939 223.127C126.989 223.564 128.153 223.7 129.285 223.516C130.417 223.331 131.466 222.836 132.298 222.092C133.13 221.348 133.71 220.389 133.962 219.336C134.13 218.636 134.149 217.911 134.019 217.204C133.889 216.497 133.611 215.821 133.203 215.215C132.794 214.608 132.263 214.084 131.638 213.67C131.013 213.257 130.308 212.964 129.563 212.807V212.807Z" fill="white"/>
</g>
</g>
<g id="Gear-1">
<path id="Vector_106" fill-rule="evenodd" clip-rule="evenodd" d="M115.104 236.239C115.707 236.537 116.266 236.91 116.764 237.346L118.566 236.746L120.226 239.249L118.881 240.521C119.088 241.138 119.208 241.778 119.238 242.424L120.956 243.204L120.35 246.09H118.441C118.122 246.656 117.726 247.18 117.262 247.65L117.902 249.335L115.229 250.895L113.884 249.631C113.224 249.823 112.541 249.933 111.851 249.959L111.021 251.581L107.942 250.926V249.14C107.337 248.84 106.779 248.465 106.282 248.024L104.48 248.625L102.82 246.121L104.165 244.85C103.961 244.233 103.843 243.593 103.816 242.947L102.09 242.167L102.779 239.273H104.58C104.903 238.707 105.302 238.183 105.767 237.713L105.128 236.028L107.792 234.468L109.145 235.739C109.801 235.541 110.482 235.428 111.17 235.404L112 233.789L115.08 234.437V236.231L115.104 236.239ZM112.39 239.639C111.737 239.5 111.054 239.546 110.428 239.772C109.803 239.998 109.262 240.393 108.876 240.907C108.489 241.422 108.274 242.033 108.257 242.662C108.24 243.292 108.422 243.912 108.78 244.444C109.138 244.976 109.656 245.397 110.269 245.652C110.882 245.908 111.561 245.986 112.221 245.879C112.882 245.771 113.493 245.481 113.978 245.047C114.463 244.613 114.8 244.053 114.947 243.438C115.142 242.616 114.983 241.754 114.504 241.042C114.025 240.33 113.265 239.826 112.39 239.639Z" fill="#1A2151"/>
<g id="Group_9" opacity="0.4">
<path id="Vector_107" opacity="0.4" fill-rule="evenodd" clip-rule="evenodd" d="M115.104 236.239C115.707 236.537 116.266 236.91 116.764 237.346L118.566 236.746L120.226 239.249L118.881 240.521C119.088 241.138 119.208 241.778 119.238 242.424L120.956 243.204L120.35 246.09H118.441C118.122 246.656 117.726 247.18 117.262 247.65L117.902 249.335L115.229 250.895L113.884 249.631C113.224 249.823 112.541 249.933 111.851 249.959L111.021 251.581L107.942 250.926V249.14C107.337 248.84 106.779 248.465 106.282 248.024L104.48 248.625L102.82 246.121L104.165 244.85C103.961 244.233 103.843 243.593 103.816 242.947L102.09 242.167L102.779 239.273H104.58C104.903 238.707 105.302 238.183 105.767 237.713L105.128 236.028L107.792 234.468L109.145 235.739C109.801 235.541 110.482 235.428 111.17 235.404L112 233.789L115.08 234.437V236.231L115.104 236.239ZM112.39 239.639C111.737 239.5 111.054 239.546 110.428 239.772C109.803 239.998 109.262 240.393 108.876 240.907C108.489 241.422 108.274 242.033 108.257 242.662C108.24 243.292 108.422 243.912 108.78 244.444C109.138 244.976 109.656 245.397 110.269 245.652C110.882 245.908 111.561 245.986 112.221 245.879C112.882 245.771 113.493 245.481 113.978 245.047C114.463 244.613 114.8 244.053 114.947 243.438C115.142 242.616 114.983 241.754 114.504 241.042C114.025 240.33 113.265 239.826 112.39 239.639Z" fill="white"/>
</g>
</g>
</g>
<g id="freepik--Character--inject-3">
<path id="Vector_108" d="M298.41 207.535C300.151 207.064 301.674 206.06 302.738 204.682C303.801 203.304 304.343 201.631 304.278 199.93C304.179 198.37 303.573 196.919 303.639 195.39C303.747 193.05 305.424 191.014 306.685 188.955C307.947 186.896 308.785 184.189 307.316 182.255C306.37 180.999 304.685 180.437 303.531 179.345C302.377 178.253 301.871 176.795 301.257 175.399C300.643 174.002 299.871 172.559 298.476 171.818C297.082 171.077 294.949 171.397 294.376 172.809" fill="#263238"/>
<path id="Vector_109" d="M283.337 169.057C285.827 167.567 286.425 164.128 285.072 161.671C283.719 159.214 280.864 157.716 277.959 157.271C275.845 156.969 273.686 157.141 271.656 157.773C269.626 158.405 267.785 159.478 266.281 160.906C264.679 162.466 263.376 164.486 261.201 165.196C259.292 165.828 257.176 165.259 255.167 165.508C253.828 165.736 252.559 166.242 251.455 166.99C250.351 167.737 249.438 168.708 248.784 169.829C247.499 172.086 246.727 174.57 246.518 177.122C246.228 179.462 246.029 181.997 244.319 183.69C242.609 185.383 239.995 185.695 237.92 186.872C236.008 188.056 234.666 189.896 234.179 191.997C233.692 194.099 234.099 196.297 235.313 198.12C236.143 199.243 237.322 200.281 237.413 201.646C237.505 203.011 236.65 203.986 236.243 205.202C236.034 205.972 236.002 206.774 236.151 207.556C236.299 208.337 236.624 209.08 237.104 209.733C237.584 210.387 238.207 210.936 238.932 211.344C239.657 211.752 240.467 212.009 241.306 212.098C243.032 212.191 244.875 211.559 246.427 212.285C247.979 213.01 248.535 214.75 249.515 216.076C250.526 217.354 251.973 218.269 253.615 218.666C255.257 219.064 256.994 218.92 258.537 218.26C259.807 217.675 261.027 216.7 262.413 216.801C263.799 216.902 264.903 218.018 266.314 218.267C268.132 218.595 269.85 217.339 270.929 215.927C272.008 214.516 272.763 212.854 274.141 211.7C275.95 210.187 278.49 209.82 280.781 209.079C283.312 208.257 285.626 206.933 287.567 205.198C289.508 203.463 291.029 201.357 292.029 199.022C293.029 196.687 293.484 194.178 293.364 191.663C293.243 189.149 292.55 186.688 291.33 184.447" fill="#263238"/>
<path id="Vector_110" d="M288.84 172.123C289.83 172.224 290.743 172.67 291.399 173.374C292.055 174.077 292.407 174.986 292.384 175.921V175.921L290.01 226.364C289.911 232.323 280.648 235.669 273.859 235.521C267.003 235.373 266.787 232.214 266.696 226.543C266.555 217.074 266.571 213.517 266.563 213.572C266.555 213.626 257.906 212.207 256.138 201.583C255.258 196.295 255.557 187.637 256.047 180.562C256.495 174.19 261.027 166.382 267.758 167.068L288.84 172.123Z" fill="#FFBE9D"/>
<path id="Vector_111" d="M258.495 187.434C258.493 187.789 258.637 188.131 258.897 188.388C259.157 188.646 259.512 188.798 259.89 188.815C260.074 188.828 260.259 188.807 260.434 188.753C260.61 188.699 260.772 188.612 260.911 188.498C261.05 188.384 261.164 188.245 261.245 188.089C261.326 187.933 261.373 187.763 261.384 187.59C261.391 187.235 261.249 186.892 260.99 186.634C260.731 186.376 260.375 186.224 259.998 186.209C259.813 186.196 259.627 186.216 259.452 186.271C259.276 186.325 259.113 186.412 258.973 186.526C258.834 186.64 258.719 186.779 258.637 186.935C258.555 187.091 258.507 187.26 258.495 187.434V187.434Z" fill="#263238"/>
<path id="Vector_112" d="M257.997 185.071C258.18 185.25 259.275 184.486 260.836 184.493C262.396 184.501 263.533 185.234 263.708 185.055C263.882 184.876 263.608 184.657 263.11 184.314C262.436 183.873 261.633 183.638 260.811 183.643C260.001 183.637 259.209 183.875 258.553 184.322C258.072 184.665 257.906 184.993 257.997 185.071Z" fill="#263238"/>
<path id="Vector_113" d="M274.041 187.434C274.039 187.789 274.182 188.131 274.442 188.388C274.702 188.646 275.058 188.798 275.436 188.815C275.62 188.828 275.805 188.807 275.98 188.753C276.156 188.699 276.318 188.612 276.457 188.498C276.596 188.384 276.709 188.245 276.791 188.089C276.872 187.933 276.919 187.763 276.93 187.59C276.936 187.234 276.794 186.89 276.533 186.631C276.272 186.373 275.914 186.222 275.535 186.209C275.351 186.196 275.166 186.217 274.99 186.271C274.815 186.325 274.653 186.412 274.514 186.526C274.375 186.64 274.261 186.779 274.18 186.935C274.099 187.091 274.052 187.261 274.041 187.434Z" fill="#263238"/>
<path id="Vector_114" d="M273.327 185.375C273.51 185.554 274.606 184.79 276.166 184.798C277.726 184.805 278.864 185.578 279.038 185.359C279.212 185.141 278.938 184.961 278.44 184.618C277.766 184.177 276.963 183.942 276.141 183.947C275.331 183.945 274.541 184.182 273.884 184.626C273.402 184.977 273.236 185.297 273.327 185.375Z" fill="#263238"/>
<path id="Vector_115" d="M267.642 196.232C266.834 195.991 265.998 195.844 265.152 195.796C264.754 195.757 264.372 195.679 264.322 195.429C264.289 195.042 264.385 194.655 264.596 194.321C264.969 193.417 265.368 192.465 265.774 191.474C267.434 187.418 268.613 184.08 268.439 184.025C268.264 183.971 266.779 187.2 265.119 191.248C264.729 192.254 264.347 193.206 263.99 194.119C263.734 194.568 263.658 195.088 263.774 195.585C263.831 195.717 263.92 195.835 264.034 195.93C264.148 196.025 264.283 196.093 264.43 196.131C264.652 196.189 264.88 196.22 265.11 196.225C265.951 196.325 266.801 196.328 267.642 196.232V196.232Z" fill="#263238"/>
<path id="Vector_116" d="M266.521 213.572C271.843 213.661 277.086 212.363 281.669 209.82C281.669 209.82 277.834 217.308 266.521 216.286V213.572Z" fill="#EB996E"/>
<path id="Vector_117" d="M268.289 199.766C268.585 199.421 268.967 199.151 269.402 198.981C269.837 198.81 270.311 198.745 270.779 198.791C271.124 198.819 271.458 198.913 271.762 199.067C272.066 199.222 272.333 199.433 272.547 199.688C272.752 199.934 272.873 200.232 272.895 200.543C272.917 200.855 272.839 201.166 272.672 201.435C272.419 201.696 272.089 201.882 271.724 201.968C271.36 202.054 270.976 202.037 270.622 201.919C269.887 201.668 269.211 201.287 268.63 200.795C268.458 200.674 268.31 200.526 268.19 200.359C268.132 200.278 268.102 200.183 268.102 200.086C268.102 199.988 268.132 199.893 268.19 199.813" fill="#F3DE8A"/>
<path id="Vector_118" d="M272.24 197.254C271.983 197.254 271.974 198.814 270.522 199.961C269.069 201.107 267.268 200.905 267.26 201.131C267.26 201.224 267.658 201.435 268.422 201.458C269.413 201.477 270.379 201.162 271.144 200.569C271.884 200.007 272.36 199.195 272.472 198.307C272.531 197.644 272.34 197.246 272.24 197.254Z" fill="#263238"/>
<path id="Vector_119" d="M272.63 182.809C272.779 183.206 274.34 183.019 276.166 183.23C277.992 183.44 279.486 183.916 279.718 183.557C279.835 183.386 279.577 183.011 278.98 182.621C278.183 182.15 277.283 181.854 276.347 181.756C275.412 181.657 274.464 181.758 273.576 182.052C272.904 182.302 272.564 182.621 272.63 182.809Z" fill="#263238"/>
<path id="Vector_120" d="M258.578 180.827C258.852 181.163 259.931 180.827 261.218 180.827C262.504 180.827 263.608 181.054 263.857 180.71C263.973 180.539 263.799 180.203 263.318 179.891C262.678 179.51 261.931 179.317 261.174 179.338C260.416 179.359 259.683 179.592 259.068 180.008C258.611 180.32 258.462 180.664 258.578 180.827Z" fill="#263238"/>
<path id="Vector_121" d="M281.37 168.667C282.657 167.82 284.123 167.243 285.668 166.973C287.213 166.704 288.801 166.75 290.326 167.107C293.339 167.887 295.837 170.477 295.945 173.347C296.011 175.219 295.115 177.247 296.036 178.909C296.957 180.57 298.949 181.171 300.427 182.341C301.559 183.271 302.328 184.53 302.61 185.918C302.893 187.306 302.674 188.743 301.987 190C300.751 192.13 298.161 193.69 297.945 196.092C297.738 198.354 299.763 200.265 300.261 202.488C300.8 204.937 299.356 207.472 297.289 209.102C295.223 210.733 292.6 211.63 290.044 212.488C288.052 213.166 285.894 213.853 283.843 213.408C282.632 213.103 281.545 212.467 280.718 211.581C279.89 210.696 279.361 209.6 279.195 208.432C279.072 207.267 279.218 206.091 279.624 204.984C280.029 203.878 280.684 202.866 281.544 202.02C282.997 200.515 285.039 199.243 285.387 197.254C285.927 194.134 282.009 191.63 282.25 188.51C282.374 186.904 283.586 185.57 284.59 184.244C285.595 182.918 286.475 181.256 285.852 179.751C285.022 177.785 282.308 177.271 280.648 175.851C279.964 175.246 279.472 174.474 279.227 173.621C278.982 172.769 278.994 171.869 279.262 171.023C279.564 170.177 280.105 169.425 280.827 168.847C281.55 168.268 282.426 167.885 283.362 167.739" fill="#263238"/>
<path id="Vector_122" d="M282.59 166.273C282.596 167.341 282.35 168.397 281.872 169.366C281.393 170.335 280.692 171.192 279.82 171.878C278.949 172.563 277.926 173.059 276.827 173.331C275.728 173.602 274.578 173.643 273.46 173.449C271.734 173.152 269.841 172.333 268.347 173.199C266.853 174.065 266.687 176.319 265.318 177.466C263.326 179.096 260.164 177.567 257.632 178.246C255.682 178.792 254.462 180.539 253.158 182.021C251.855 183.503 249.921 184.899 247.963 184.361C248.022 182.705 248.283 181.062 248.743 179.462C249.21 177.854 250.254 176.446 251.698 175.477C252.552 175.059 253.383 174.601 254.188 174.104C255.848 172.879 256.188 170.734 257.184 169.018C257.843 167.914 258.772 166.972 259.895 166.272C261.018 165.572 262.302 165.134 263.641 164.993C265.866 164.783 268.157 165.407 270.281 164.892C271.883 164.518 273.286 163.543 274.904 163.246C278.067 162.685 281.005 164.806 283.296 166.936" fill="#263238"/>
<path id="Vector_123" d="M303.232 191.662C303.44 191.285 303.53 190.86 303.49 190.437C303.387 189.869 303.12 189.34 302.717 188.906C302.314 188.472 301.792 188.152 301.207 187.98C300.395 187.71 299.563 187.499 298.717 187.348C297.707 187.176 296.748 186.804 295.903 186.256C295.452 185.913 295.087 185.481 294.835 184.99C294.582 184.499 294.448 183.962 294.443 183.417C294.431 182.302 294.489 181.187 294.617 180.079C294.65 179.531 294.619 178.982 294.526 178.441C294.417 177.935 294.19 177.458 293.862 177.044C293.118 176.326 292.175 175.818 291.139 175.578C290.168 175.317 289.236 174.939 288.367 174.455C287.611 174.029 286.923 173.504 286.325 172.895C285.452 172.022 284.774 170.993 284.333 169.868C284.207 169.568 284.11 169.257 284.043 168.94C283.993 168.722 283.976 168.613 283.993 168.605C284.01 168.597 284.142 169.049 284.483 169.814C285.094 171.146 286.024 172.328 287.2 173.268C288.376 174.208 289.766 174.881 291.264 175.235C292.376 175.482 293.39 176.023 294.185 176.795C294.56 177.255 294.821 177.788 294.949 178.355C295.048 178.927 295.082 179.508 295.049 180.086C294.925 181.182 294.864 182.284 294.866 183.386C294.865 183.877 294.98 184.363 295.202 184.808C295.425 185.253 295.749 185.647 296.152 185.96C296.948 186.479 297.85 186.838 298.8 187.013C299.648 187.182 300.481 187.414 301.29 187.707C301.987 187.957 302.596 188.384 303.05 188.939C303.379 189.367 303.578 189.872 303.622 190.398C303.645 190.732 303.573 191.065 303.415 191.365C303.34 191.584 303.241 191.669 303.232 191.662Z" fill="#455A64"/>
<path id="Vector_124" d="M236.675 198.292L236.484 198.206C236.312 198.105 236.168 197.969 236.06 197.808C235.903 197.469 235.842 197.098 235.883 196.73C235.924 196.363 236.065 196.011 236.293 195.71C236.575 195.243 236.996 194.863 237.505 194.618C238.094 194.343 238.701 194.103 239.322 193.9C240.02 193.681 240.665 193.337 241.223 192.886C241.789 192.331 242.167 191.631 242.31 190.874C242.493 190.094 242.551 189.205 242.709 188.3C242.827 187.329 243.213 186.404 243.829 185.617C245.141 183.994 247.299 183.128 248.909 181.6C249.712 180.795 250.316 179.834 250.677 178.784C251.06 177.676 251.338 176.538 251.507 175.383C251.855 173.043 252.212 170.438 253.88 168.301C254.694 167.227 255.915 166.487 257.292 166.234C258.599 166.058 259.929 166.087 261.226 166.319C262.437 166.54 263.673 166.608 264.903 166.522C266.06 166.396 267.128 165.878 267.907 165.064C269.451 163.504 270.331 161.398 272.232 160.321C273.078 159.836 274.022 159.519 275.005 159.392C275.987 159.264 276.987 159.329 277.942 159.58C279.524 160.003 280.87 160.988 281.694 162.326C282.317 163.32 282.654 164.449 282.673 165.602C282.696 166.324 282.574 167.043 282.316 167.723C282.23 167.963 282.116 168.193 281.976 168.41C281.976 168.41 282.076 168.168 282.233 167.7C282.45 167.023 282.543 166.316 282.507 165.61C282.46 164.491 282.111 163.401 281.495 162.443C280.683 161.173 279.38 160.248 277.859 159.861C276.944 159.634 275.99 159.586 275.055 159.72C274.12 159.855 273.224 160.168 272.423 160.641C271.553 161.203 270.811 161.921 270.24 162.755C269.621 163.662 268.939 164.53 268.198 165.352C267.781 165.779 267.293 166.14 266.754 166.421C266.19 166.691 265.581 166.868 264.953 166.943C263.687 167.034 262.415 166.969 261.168 166.748C259.918 166.522 258.636 166.49 257.375 166.655C256.105 166.896 254.981 167.582 254.229 168.574C253.473 169.579 252.924 170.709 252.611 171.904C252.311 173.082 252.081 174.275 251.922 175.477C251.757 176.652 251.479 177.811 251.092 178.94C250.711 180.043 250.069 181.051 249.216 181.888C247.514 183.448 245.381 184.322 244.136 185.858C243.553 186.598 243.181 187.465 243.057 188.378C242.9 189.267 242.833 190.141 242.626 190.967C242.469 191.778 242.052 192.524 241.43 193.105C240.843 193.571 240.163 193.924 239.43 194.142C238.813 194.333 238.208 194.56 237.621 194.821C237.141 195.044 236.739 195.39 236.459 195.819C236.239 196.1 236.096 196.429 236.044 196.774C235.992 197.12 236.032 197.472 236.16 197.8C236.297 197.993 236.472 198.16 236.675 198.292V198.292Z" fill="#455A64"/>
<path id="Vector_125" d="M208.944 271.44L228.989 269.716C228.989 269.716 241.323 239.179 256.528 231.777L266.38 247.946L245.29 285.176H204.122L208.944 271.44Z" fill="#F3DE8A"/>
<path id="Vector_126" opacity="0.3" d="M208.944 271.44L228.989 269.716C228.989 269.716 241.323 239.179 256.528 231.777L266.38 247.946L245.29 285.176H204.122L208.944 271.44Z" fill="black"/>
<path id="Vector_127" d="M216.862 280.02C217.853 277.918 219.112 275.938 220.614 274.123C219.61 276.219 218.351 278.197 216.862 280.02Z" fill="#FAFAFA"/>
<path id="Vector_128" d="M231.064 279.653C229.324 278.053 227.792 276.265 226.499 274.326C227.426 275.07 228.248 275.922 228.947 276.861C229.765 277.712 230.476 278.649 231.064 279.653V279.653Z" fill="#FAFAFA"/>
<path id="Vector_129" d="M233.529 272.657C233.241 271.019 233.241 269.349 233.529 267.712C233.817 269.349 233.817 271.019 233.529 272.657V272.657Z" fill="#FAFAFA"/>
<path id="Vector_130" d="M226.474 283.569C225.774 283.386 225.122 283.07 224.557 282.641C223.561 282.025 222.814 281.455 222.897 281.362C223.594 281.554 224.245 281.872 224.814 282.298C225.76 282.906 226.54 283.475 226.474 283.569Z" fill="#FAFAFA"/>
<path id="Vector_131" d="M237.986 255.505C237.657 256.682 237.192 257.823 236.6 258.905C236.137 260.043 235.541 261.128 234.824 262.142C235.143 260.963 235.605 259.822 236.202 258.742C236.669 257.605 237.268 256.519 237.986 255.505Z" fill="#FAFAFA"/>
<path id="Vector_132" d="M246.112 243.134C246.178 243.22 245.464 243.844 244.51 244.53C243.967 244.996 243.332 245.359 242.642 245.599C242.576 245.505 243.29 244.881 244.244 244.202C244.785 243.733 245.42 243.369 246.112 243.134Z" fill="#FAFAFA"/>
<path id="Vector_133" d="M276.091 282.727L286.433 243.485C287.298 240.192 289.465 237.333 292.493 235.489C295.521 233.644 299.183 232.953 302.734 233.555V233.555C306.382 234.176 309.628 236.11 311.78 238.947C313.933 241.784 314.82 245.299 314.255 248.742L307.93 287.095C307.175 291.02 305.137 294.626 302.099 297.413C299.062 300.199 295.175 302.026 290.981 302.64L282.764 303.841L276.091 282.727Z" fill="#F3DE8A"/>
<path id="Vector_134" d="M308.677 231.02C307.598 230.191 306.337 229.597 304.984 229.281C303.52 228.961 301.998 228.961 300.535 229.281C298.753 229.704 297.098 230.504 295.696 231.621C292.666 234.008 291.023 237.081 289.886 239.281C289.33 240.38 288.907 241.285 288.608 241.909C288.47 242.243 288.301 242.564 288.101 242.869C288.183 242.521 288.299 242.181 288.45 241.855C288.707 241.207 289.081 240.295 289.604 239.156C290.217 237.834 290.927 236.555 291.729 235.326C292.725 233.815 293.965 232.46 295.405 231.309C296.853 230.14 298.573 229.309 300.427 228.883C301.948 228.558 303.53 228.576 305.042 228.938C306.057 229.183 307.011 229.615 307.847 230.209C308.07 230.372 308.278 230.552 308.47 230.747C308.619 230.942 308.685 231.013 308.677 231.02Z" fill="#263238"/>
<path id="Vector_135" d="M250.104 239.85C250.022 239.982 249.924 240.105 249.813 240.217L248.934 241.215C248.162 242.081 247.074 243.344 245.829 244.975C242.52 249.193 240.121 253.978 238.766 259.061C237.33 265.044 237.256 270.644 237.015 274.661C236.907 276.674 236.807 278.304 236.716 279.427C236.666 279.958 236.625 280.387 236.592 280.722C236.581 280.874 236.559 281.025 236.525 281.174C236.502 281.024 236.502 280.872 236.525 280.722C236.525 280.379 236.525 279.942 236.567 279.419C236.567 278.242 236.658 276.627 236.724 274.654C236.89 270.644 236.907 265.021 238.384 258.976C239.741 253.842 242.201 249.025 245.614 244.819C246.9 243.196 248.029 241.948 248.834 241.114C249.232 240.692 249.564 240.38 249.78 240.17C249.878 240.054 249.986 239.947 250.104 239.85V239.85Z" fill="#263238"/>
<path id="Vector_136" d="M316.355 239.764C315.218 232.744 311.101 231.067 306.826 228.883C305.432 228.166 298.701 226.543 293.364 225.319C292.849 222.284 291.936 216.84 291.704 215.693C291.421 214.079 264.513 218.111 264.172 218.72C263.948 219.118 263.342 225.42 262.936 229.64L256.495 231.754L248.12 241.8L243.746 247.634C241.169 251 239.327 254.812 238.326 258.851C237.386 263.324 236.983 267.881 237.123 272.438L235.82 298.178L292.16 313.139L296.476 287.04L311.001 268.46C312.238 260.949 317.749 248.391 316.355 239.764Z" fill="#F3DE8A"/>
<path id="Vector_137" d="M268.306 230.428C268.109 229.848 267.984 229.248 267.932 228.641C267.758 227.534 267.542 225.997 267.335 224.297C267.235 223.454 267.144 222.651 267.053 221.894C266.967 221.237 266.917 220.576 266.903 219.913C266.896 219.445 267.037 218.986 267.31 218.595C267.526 218.33 267.708 218.26 267.725 218.275C267.742 218.291 267.6 218.416 267.451 218.681C267.263 219.066 267.18 219.49 267.21 219.913C267.21 220.459 267.36 221.114 267.451 221.855C267.542 222.596 267.65 223.415 267.766 224.25C267.974 225.95 268.14 227.495 268.24 228.61C268.336 229.212 268.358 229.821 268.306 230.428V230.428Z" fill="#263238"/>
<path id="Vector_138" d="M275.485 228.836C275.205 228.319 275.004 227.768 274.888 227.198C274.137 224.497 273.857 221.7 274.058 218.915C274.063 218.337 274.153 217.762 274.323 217.207C274.456 217.207 274.215 219.835 274.539 223.049C274.863 226.262 275.618 228.805 275.485 228.836Z" fill="#263238"/>
<path id="Vector_139" d="M288.84 226.98C289.01 225.041 288.957 223.09 288.682 221.161C288.259 219.255 287.607 217.4 286.74 215.631C287.157 216.065 287.491 216.564 287.728 217.105C289.051 219.642 289.575 222.48 289.238 225.287C289.2 225.868 289.065 226.439 288.84 226.98V226.98Z" fill="#263238"/>
<path id="Vector_140" d="M250.66 249.959C251.942 247.661 253.61 245.573 255.599 243.773C254.061 245.909 252.412 247.974 250.66 249.959Z" fill="#FAFAFA"/>
<path id="Vector_141" d="M263.301 240.24C261.691 238.719 260.296 237.01 259.151 235.154C259.996 235.873 260.745 236.685 261.384 237.572C262.139 238.382 262.783 239.279 263.301 240.24V240.24Z" fill="#FAFAFA"/>
<path id="Vector_142" d="M276.548 234.172C275.737 235.076 274.852 235.918 273.9 236.691C273.05 237.563 272.132 238.374 271.153 239.117C271.821 238.103 272.646 237.188 273.601 236.402C274.457 235.522 275.45 234.77 276.548 234.172Z" fill="#FAFAFA"/>
<path id="Vector_143" d="M272.829 226.746C272.057 226.365 271.358 225.864 270.763 225.264C270.069 224.76 269.466 224.154 268.978 223.47C269.75 223.86 270.45 224.363 271.053 224.96C271.745 225.46 272.345 226.064 272.829 226.746V226.746Z" fill="#FAFAFA"/>
<path id="Vector_144" d="M284.441 220.927C283.555 221.317 282.613 221.58 281.644 221.707C280.708 221.961 279.738 222.087 278.764 222.082C279.648 221.695 280.588 221.433 281.553 221.302C282.491 221.047 283.464 220.921 284.441 220.927Z" fill="#FAFAFA"/>
<path id="Vector_145" d="M286.765 238.204C286.499 237.319 286.376 236.401 286.4 235.482C286.281 234.571 286.303 233.649 286.466 232.744C286.733 233.629 286.856 234.547 286.832 235.466C286.951 236.377 286.928 237.299 286.765 238.204V238.204Z" fill="#FAFAFA"/>
<path id="Vector_146" d="M282.532 246.48C281.917 245.497 281.427 244.45 281.071 243.36C280.59 242.301 280.239 241.194 280.026 240.061C281.117 242.113 281.953 244.278 282.516 246.511L282.532 246.48Z" fill="#FAFAFA"/>
<path id="Vector_147" d="M271.028 252.369C270.367 251.329 269.833 250.222 269.435 249.07C268.897 247.965 268.496 246.805 268.24 245.614C268.895 246.66 269.43 247.768 269.833 248.921C270.365 250.026 270.765 251.182 271.028 252.369V252.369Z" fill="#FAFAFA"/>
<path id="Vector_148" d="M260.205 259.007C259.438 256.866 258.953 254.644 258.761 252.392C259.208 253.443 259.52 254.54 259.69 255.661C260.001 256.753 260.174 257.876 260.205 259.007V259.007Z" fill="#FAFAFA"/>
<path id="Vector_149" d="M247.34 259.272C246.061 257.409 245.024 255.408 244.252 253.313C245.532 255.176 246.568 257.177 247.34 259.272V259.272Z" fill="#FAFAFA"/>
<path id="Vector_150" d="M247.066 267.025C246.012 267.73 244.883 268.328 243.696 268.811C242.567 269.411 241.37 269.89 240.127 270.239C241.18 269.526 242.312 268.924 243.505 268.445C244.632 267.848 245.827 267.372 247.066 267.025Z" fill="#FAFAFA"/>
<path id="Vector_151" d="M247.224 279.287C246.66 278.409 246.264 277.446 246.054 276.44C245.704 275.474 245.538 274.457 245.564 273.437C245.962 274.375 246.265 275.347 246.469 276.338C246.818 277.297 247.07 278.284 247.224 279.287Z" fill="#FAFAFA"/>
<path id="Vector_152" d="M244.559 287.898C243.576 287.313 242.668 286.622 241.854 285.839C240.946 285.158 240.134 284.372 239.438 283.499C240.422 284.084 241.33 284.775 242.144 285.558C243.052 286.238 243.863 287.025 244.559 287.898V287.898Z" fill="#FAFAFA"/>
<path id="Vector_153" d="M261.508 282.017C261.508 282.134 259.632 282.649 257.408 283.577C255.184 284.505 253.49 285.457 253.416 285.355C254.549 284.439 255.84 283.711 257.234 283.202C258.575 282.578 260.021 282.177 261.508 282.017V282.017Z" fill="#FAFAFA"/>
<path id="Vector_154" d="M256.553 277.75C256.018 276.915 255.608 276.015 255.333 275.075C254.918 274.182 254.639 273.24 254.503 272.275C255.036 273.107 255.443 274.005 255.715 274.942C256.135 275.836 256.417 276.781 256.553 277.75V277.75Z" fill="#FAFAFA"/>
<path id="Vector_155" d="M266.604 267.205C265.978 268.525 265.219 269.787 264.338 270.972C263.579 272.242 262.695 273.444 261.699 274.56C263.09 271.984 264.732 269.535 266.604 267.244V267.205Z" fill="#FAFAFA"/>
<path id="Vector_156" d="M277.411 268.211C276.318 267.158 275.387 265.966 274.647 264.67C273.783 263.445 273.101 262.114 272.622 260.715C272.738 260.668 273.701 262.4 275.021 264.467C276.34 266.534 277.511 268.148 277.411 268.211Z" fill="#FAFAFA"/>
<path id="Vector_157" d="M283.86 258.18C282.854 258.551 281.779 258.731 280.698 258.71C279.627 258.828 278.541 258.749 277.502 258.476C278.556 258.345 279.619 258.287 280.681 258.305C281.736 258.192 282.799 258.15 283.86 258.18Z" fill="#FAFAFA"/>
<path id="Vector_158" d="M299.24 246.784C296.606 248.273 293.827 249.521 290.94 250.513C293.579 249.032 296.357 247.784 299.24 246.784Z" fill="#FAFAFA"/>
<path id="Vector_159" d="M300.261 239.53C301.107 237.337 302.221 235.243 303.581 233.29C303.23 234.409 302.74 235.485 302.12 236.496C301.625 237.571 301.001 238.589 300.261 239.53Z" fill="#FAFAFA"/>
<path id="Vector_160" d="M310.022 245.224C309.511 244.071 309.089 242.885 308.76 241.675C308.298 240.506 307.926 239.307 307.648 238.087C308.889 240.313 309.693 242.731 310.022 245.224V245.224Z" fill="#FAFAFA"/>
<path id="Vector_161" d="M311.557 252.775C310.416 253.36 309.188 253.781 307.913 254.023C306.674 254.393 305.38 254.58 304.079 254.576C305.297 254.182 306.542 253.867 307.806 253.633C309.034 253.267 310.287 252.98 311.557 252.775V252.775Z" fill="#FAFAFA"/>
<path id="Vector_162" d="M294.825 261.994C294.7 261.994 295.057 260.075 295.156 257.712C295.256 255.349 295.09 253.43 295.215 253.414C295.598 254.822 295.724 256.28 295.588 257.728C295.596 259.18 295.338 260.624 294.825 261.994Z" fill="#FAFAFA"/>
<path id="Vector_163" d="M291.488 271.487C289.255 269.824 287.418 267.741 286.093 265.372C286.201 265.309 287.296 266.752 288.79 268.437C289.746 269.408 290.647 270.426 291.488 271.487V271.487Z" fill="#FAFAFA"/>
<path id="Vector_164" d="M308.262 269.482C307.176 270.125 306.014 270.648 304.801 271.042C303.643 271.566 302.426 271.969 301.174 272.243C303.421 271.073 305.798 270.139 308.262 269.459V269.482Z" fill="#FAFAFA"/>
<path id="Vector_165" d="M302.253 287.344C302.001 284.488 302.032 281.615 302.344 278.764C302.607 281.62 302.576 284.494 302.253 287.344Z" fill="#FAFAFA"/>
<path id="Vector_166" d="M289.38 286.315C289.589 283.33 290.368 280.406 291.679 277.68C291.795 277.719 291.164 279.614 290.533 281.993C289.902 284.372 289.504 286.338 289.38 286.315Z" fill="#FAFAFA"/>
<path id="Vector_167" d="M289.969 291.002C289.969 291.119 287.91 291.307 285.387 291.704C282.864 292.102 280.839 292.539 280.806 292.422C282.246 291.854 283.762 291.476 285.313 291.299C286.842 290.993 288.41 290.894 289.969 291.002Z" fill="#FAFAFA"/>
<path id="Vector_168" d="M275.726 287.999C276.448 287.019 277.283 286.116 278.216 285.308C279.038 284.41 279.969 283.604 280.988 282.906C280.267 283.887 279.432 284.789 278.498 285.597C277.674 286.494 276.744 287.299 275.726 287.999V287.999Z" fill="#FAFAFA"/>
<path id="Vector_169" d="M266.505 296.4C266.065 295.406 265.691 294.387 265.384 293.35C264.934 292.358 264.546 291.343 264.222 290.308C265.539 292.115 266.326 294.216 266.505 296.4Z" fill="#FAFAFA"/>
<path id="Vector_170" d="M281.37 301.252C278.539 300.37 275.807 299.231 273.211 297.851C274.643 298.23 276.032 298.737 277.361 299.364C278.757 299.875 280.099 300.507 281.37 301.252Z" fill="#FAFAFA"/>
<path id="Vector_171" d="M255.441 299.84C255.557 298.859 255.82 297.897 256.221 296.985C256.483 296.031 256.883 295.115 257.408 294.263C257.291 295.244 257.028 296.205 256.628 297.118C256.359 298.069 255.96 298.984 255.441 299.84V299.84Z" fill="#FAFAFA"/>
<path id="Vector_172" d="M272.539 302.562C272.539 302.679 270.157 302.32 267.219 302.18C264.28 302.039 261.898 302.18 261.89 302.024C263.653 301.702 265.455 301.618 267.244 301.774C269.04 301.796 270.823 302.061 272.539 302.562V302.562Z" fill="#FAFAFA"/>
<path id="Vector_173" d="M276.091 279.56C276.076 279.456 276.076 279.351 276.091 279.248C276.089 278.949 276.137 278.652 276.232 278.366C276.362 277.885 276.683 277.469 277.129 277.204C277.741 276.871 278.461 276.76 279.154 276.892L278.988 276.986C279.893 273.991 281.345 269.623 282.798 264.724C284.159 260.138 285.08 255.918 285.719 252.853C286.035 251.378 286.284 250.154 286.483 249.226C286.558 248.78 286.666 248.339 286.807 247.907C286.796 248.361 286.744 248.812 286.649 249.257C286.516 250.123 286.3 251.371 286.018 252.907C285.299 256.925 284.363 260.905 283.213 264.833C281.76 269.74 280.258 274.092 279.262 277.064L279.22 277.181H279.096C278.469 277.046 277.812 277.129 277.245 277.415C276.833 277.646 276.524 278.009 276.374 278.437C276.1 279.123 276.149 279.568 276.091 279.56Z" fill="#263238"/>
<path id="Vector_174" d="M294.7 290.41C294.634 290.41 294.119 289.38 293.04 287.804C290.274 283.691 286.373 280.359 281.752 278.164C279.984 277.329 278.814 276.947 278.839 276.877C279.123 276.919 279.401 276.99 279.669 277.087C280.42 277.316 281.154 277.59 281.868 277.906C286.64 279.991 290.624 283.392 293.289 287.656C293.69 288.295 294.047 288.956 294.36 289.637C294.517 289.876 294.631 290.137 294.7 290.41V290.41Z" fill="#263238"/>
<g id="Group_10" opacity="0.2">
<path id="Vector_175" opacity="0.2" d="M279.337 276.307C282.317 276.377 285.268 276.88 288.085 277.797C291.065 278.842 293.82 280.855 294.916 283.663C295.094 283.979 295.173 284.337 295.145 284.694C295.117 285.051 294.983 285.394 294.758 285.683C294.545 285.855 294.286 285.968 294.01 286.011C293.733 286.053 293.449 286.024 293.189 285.925C292.67 285.72 292.201 285.418 291.811 285.035C289.985 283.475 288.085 282.04 286.201 280.511C284.317 278.983 281.561 277.391 279.104 277.025" fill="black"/>
</g>
<path id="Vector_176" d="M273.352 271.331C273.098 271.52 272.819 271.677 272.522 271.799C271.705 272.175 270.852 272.478 269.974 272.704C267.054 273.487 263.964 273.521 261.025 272.804C258.086 272.087 255.404 270.644 253.258 268.624C252.61 268.022 252.021 267.367 251.498 266.666C251.291 266.429 251.118 266.167 250.984 265.886C251.05 265.84 251.814 266.978 253.474 268.445C255.63 270.358 258.265 271.729 261.135 272.43C264.005 273.131 267.017 273.139 269.891 272.454C272.058 271.908 273.311 271.253 273.352 271.331Z" fill="#263238"/>
<g id="Group_11" opacity="0.2">
<path id="Vector_177" opacity="0.2" d="M251.391 266.464C252.793 269.318 254.428 272.197 257.084 274.115C258.553 275.307 260.387 276.029 262.322 276.175C265.094 276.221 267.476 274.443 269.592 272.758C262.737 273.772 255.018 270.847 251.391 266.464Z" fill="black"/>
</g>
<path id="Vector_178" d="M282.084 228.244C281.951 228.244 282.084 225.56 281.769 222.292C281.453 219.024 280.748 216.427 280.872 216.395C281.146 216.926 281.339 217.491 281.445 218.072C281.803 219.447 282.053 220.844 282.192 222.253C282.34 223.663 282.379 225.081 282.308 226.496C282.315 227.086 282.24 227.673 282.084 228.244Z" fill="#263238"/>
<path id="Vector_179" d="M183.629 332.623C183.629 332.623 174.607 334.456 166.556 333.317C159.003 332.257 142.096 333.356 142.104 342.677C142.104 353.106 164.655 350.532 173.445 348.878C182.235 347.225 191 345.758 191 345.758L183.629 332.623Z" fill="#F3DE8A"/>
<path id="Vector_180" d="M163.377 345.985C162.881 344.815 162.517 343.599 162.29 342.358C161.929 341.143 161.706 339.896 161.626 338.637C162.111 339.808 162.464 341.024 162.68 342.264C163.052 343.477 163.286 344.725 163.377 345.985Z" fill="#263238"/>
<path id="Vector_181" d="M166.457 346.125C165.804 343.668 165.437 341.152 165.361 338.621C165.757 339.832 166.013 341.08 166.125 342.342C166.375 343.589 166.486 344.857 166.457 346.125V346.125Z" fill="#263238"/>
<path id="Vector_182" d="M169.428 345.033C169.08 343.976 168.868 342.884 168.797 341.78C168.582 340.693 168.512 339.585 168.59 338.481C169.147 340.625 169.426 342.825 169.42 345.033H169.428Z" fill="#263238"/>
<path id="Vector_183" d="M174.093 343.98C173.515 343.13 173.123 342.181 172.939 341.188C172.615 340.223 172.502 339.207 172.607 338.2C172.924 339.145 173.174 340.11 173.354 341.086C173.673 342.033 173.92 343 174.093 343.98V343.98Z" fill="#263238"/>
<path id="Vector_184" d="M175.13 340.127C175.516 340.043 175.914 340.017 176.309 340.049C177.389 340.084 178.457 340.281 179.471 340.634C179.822 340.751 180.152 340.917 180.45 341.125C180.626 341.246 180.771 341.401 180.876 341.581C180.981 341.76 181.042 341.959 181.056 342.163C181.038 342.388 180.967 342.606 180.85 342.803C180.733 343 180.572 343.17 180.378 343.303C180.184 343.436 179.962 343.527 179.726 343.572C179.491 343.616 179.248 343.611 179.015 343.559C178.061 343.314 177.23 342.761 176.666 341.999C175.729 340.863 175.192 339.481 175.131 338.045C175.07 336.609 175.488 335.191 176.325 333.988C176.495 333.795 176.729 333.66 176.989 333.606C177.125 333.59 177.263 333.601 177.394 333.64C177.524 333.68 177.644 333.745 177.745 333.832C178.064 334.141 178.263 334.542 178.309 334.971C178.411 335.676 178.372 336.393 178.193 337.085C177.945 338.088 177.418 339.011 176.666 339.76C176.467 339.965 176.247 340.15 176.01 340.314C175.931 340.377 175.841 340.427 175.744 340.462C175.744 340.462 176.06 340.197 176.574 339.682C177.247 338.92 177.711 338.015 177.927 337.046C178.077 336.387 178.097 335.707 177.985 335.041C177.943 334.696 177.783 334.373 177.529 334.121C177.464 334.07 177.389 334.033 177.308 334.013C177.226 333.992 177.141 333.989 177.059 334.002C176.976 334.015 176.897 334.045 176.828 334.09C176.758 334.135 176.7 334.193 176.657 334.261C175.899 335.4 175.529 336.73 175.596 338.072C175.663 339.414 176.163 340.705 177.031 341.773C177.526 342.471 178.266 342.984 179.122 343.223C179.3 343.267 179.485 343.275 179.665 343.246C179.846 343.217 180.018 343.153 180.17 343.057C180.323 342.961 180.451 342.836 180.548 342.69C180.645 342.544 180.708 342.38 180.733 342.209C180.719 342.056 180.671 341.907 180.59 341.772C180.51 341.637 180.4 341.521 180.268 341.429C180.005 341.232 179.711 341.074 179.396 340.961C178.416 340.596 177.384 340.365 176.334 340.275C175.512 340.142 175.13 340.158 175.13 340.127Z" fill="#263238"/>
<path id="Vector_185" d="M190.112 344.378L189.888 344.448L189.207 344.604L186.592 345.166C184.318 345.634 181.015 346.297 176.915 347.038C172.814 347.779 167.917 348.598 162.423 349.323C159.546 349.767 156.626 349.906 153.716 349.736C152.167 349.638 150.637 349.363 149.159 348.917C148.4 348.675 147.667 348.367 146.968 347.997C146.239 347.63 145.588 347.138 145.051 346.546C144.75 346.286 144.488 345.99 144.271 345.665C143.847 344.981 143.587 344.218 143.508 343.43C143.43 342.643 143.534 341.848 143.814 341.102C144.357 339.661 145.367 338.417 146.703 337.545C147.959 336.713 149.345 336.069 150.811 335.634C151.533 335.439 152.23 335.205 152.944 335.057C153.658 334.909 154.364 334.745 155.069 334.651C160.721 333.817 165.859 334.238 170.142 334.238C172.283 334.277 174.217 334.238 175.91 334.129C177.358 334.031 178.799 333.859 180.226 333.614L181.787 333.302L182.907 333.005L183.596 332.826C183.674 332.8 183.755 332.784 183.837 332.779C183.837 332.779 183.762 332.818 183.613 332.865L182.932 333.083L181.82 333.419L180.268 333.77C178.834 334.042 177.384 334.237 175.927 334.355C174.225 334.472 172.283 334.55 170.117 334.526C165.834 334.565 160.696 334.168 155.119 335.018C154.422 335.111 153.733 335.291 153.027 335.431C152.322 335.572 151.641 335.813 150.927 336.001C149.502 336.425 148.155 337.053 146.935 337.865C145.674 338.69 144.719 339.866 144.204 341.227C143.947 341.917 143.851 342.651 143.923 343.379C143.994 344.107 144.232 344.812 144.619 345.446C144.818 345.734 145.055 345.996 145.325 346.226C145.832 346.766 146.436 347.217 147.109 347.56C147.781 347.918 148.487 348.216 149.218 348.449C150.664 348.88 152.161 349.142 153.675 349.229C156.555 349.4 159.447 349.272 162.298 348.847C167.776 348.169 172.682 347.35 176.782 346.648C180.882 345.946 184.194 345.322 186.485 344.9L189.116 344.417L189.796 344.3C189.906 344.304 190.014 344.331 190.112 344.378V344.378Z" fill="#263238"/>
<path id="Vector_186" d="M157.127 349.44C156.992 348.724 156.917 347.999 156.903 347.272C156.804 345.938 156.638 344.089 156.347 342.069C156.057 340.049 155.708 338.224 155.426 336.905C155.232 336.202 155.102 335.484 155.036 334.76C155.344 335.429 155.575 336.128 155.725 336.843C156.178 338.547 156.53 340.274 156.779 342.014C157.023 343.753 157.167 345.503 157.21 347.256C157.263 347.985 157.235 348.717 157.127 349.44V349.44Z" fill="#263238"/>
<path id="Vector_187" opacity="0.4" d="M180.849 333.076L186.567 346.531L191 345.758L182.509 332.623L180.849 333.076Z" fill="black"/>
<path id="Vector_188" d="M255.35 296.197C254.428 296.478 195.357 280.925 171.47 274.615C168.368 273.794 165.116 273.603 161.93 274.056C158.744 274.51 155.698 275.596 152.994 277.243L152.703 277.415C148.782 279.798 145.739 283.261 143.99 287.331C142.242 291.4 141.873 295.878 142.934 300.152C143.616 302.904 144.872 305.502 146.63 307.794C148.388 310.086 150.614 312.028 153.177 313.505C168.947 322.577 202.271 341.656 203.292 341.281C204.628 340.798 246.261 339.784 246.261 339.784L196.171 305.924L220 320.401L255.35 296.221V296.197Z" fill="#263238"/>
<path id="Vector_189" d="M206.031 279.302L218.589 273.195L230.906 280.449L277.004 281.869L283.644 302.929L216.912 288.389C216.912 288.389 204.769 289.403 203.856 286.829C202.943 284.255 206.031 279.302 206.031 279.302Z" fill="#FFBE9D"/>
<path id="Vector_190" d="M243.804 313.108L237.596 332.28L238.368 338.122C243.835 343.299 251.122 346.424 258.866 346.914C266.609 347.404 274.276 345.224 280.432 340.782V340.782C284.248 338.029 287.336 334.484 289.455 330.426C291.574 326.367 292.667 321.903 292.65 317.382L292.558 297.367L243.804 313.108Z" fill="#263238"/>
<path id="Vector_191" d="M206.836 313.232C206.77 313.318 199.565 308.381 190.751 302.203C181.936 296.026 174.84 290.94 174.914 290.854C174.989 290.768 182.185 295.698 191.008 301.876C199.831 308.053 206.911 313.139 206.836 313.232Z" fill="#455A64"/>
<path id="Vector_192" d="M217.742 277.017C215.745 277.832 213.694 278.522 211.6 279.084C209.549 279.767 207.453 280.327 205.326 280.761C207.322 279.945 209.374 279.254 211.468 278.694C213.519 278.01 215.615 277.449 217.742 277.017V277.017Z" fill="#EB996E"/>
<path id="Vector_193" d="M218.68 280.613C217.98 280.8 217.263 280.928 216.539 280.995C215.219 281.198 213.401 281.502 211.409 281.931C209.417 282.36 207.641 282.836 206.355 283.195C205.671 283.427 204.969 283.607 204.255 283.733C204.888 283.401 205.559 283.14 206.255 282.953C207.911 282.401 209.598 281.937 211.31 281.564C213.021 281.196 214.753 280.92 216.497 280.738C217.218 280.624 217.95 280.582 218.68 280.613Z" fill="#EB996E"/>
<path id="Vector_194" d="M217.626 283.92C215.357 284.555 213.048 285.055 210.712 285.418C208.403 285.917 206.064 286.284 203.707 286.517C205.98 285.887 208.292 285.387 210.629 285.02C212.936 284.521 215.272 284.154 217.626 283.92V283.92Z" fill="#EB996E"/>
<path id="Vector_195" d="M201.342 251.004L212.92 286.822C212.986 287.021 213.113 287.197 213.286 287.328C213.459 287.459 213.67 287.538 213.891 287.555L245.431 289.778C245.711 289.796 245.973 289.913 246.164 290.105C246.355 290.298 246.461 290.552 246.46 290.815V292.664C246.46 292.802 246.431 292.939 246.374 293.066C246.317 293.194 246.233 293.309 246.128 293.406C246.023 293.502 245.898 293.578 245.762 293.629C245.625 293.68 245.479 293.704 245.332 293.701L159.012 292.141C158.791 292.137 158.576 292.071 158.396 291.952C158.215 291.832 158.077 291.665 157.999 291.47L142.827 254.116C142.763 253.963 142.739 253.797 142.758 253.633C142.776 253.47 142.835 253.312 142.931 253.174C143.027 253.036 143.156 252.922 143.308 252.84C143.46 252.758 143.631 252.712 143.806 252.704L200.171 250.232C200.432 250.211 200.692 250.276 200.906 250.418C201.12 250.559 201.274 250.766 201.342 251.004V251.004Z" fill="#455A64"/>
<path id="Vector_196" d="M177.023 266.432C176.6 266.581 176.222 266.825 175.924 267.143C175.626 267.462 175.416 267.844 175.313 268.258C175.274 268.689 175.358 269.123 175.555 269.514C175.751 269.906 176.054 270.242 176.433 270.488C176.888 270.798 177.431 270.973 177.993 270.993C178.554 271.012 179.109 270.875 179.587 270.598C180.067 270.263 180.411 269.784 180.562 269.241C180.713 268.698 180.662 268.122 180.417 267.61C180.035 266.62 178.11 265.925 176.998 266.432" fill="#E0E0E0"/>
<path id="Vector_197" d="M191 345.758L181.87 331.656L248.934 282.259C253.106 279.043 258.209 277.078 263.583 276.619C267.498 276.285 271.444 276.759 275.143 278.01C278.843 279.26 282.206 281.256 284.998 283.857C287.79 286.458 289.942 289.602 291.304 293.068C292.666 296.533 293.205 300.237 292.882 303.919L291.812 315.97L247.34 329.441L191 345.758Z" fill="#263238"/>
<path id="Vector_198" d="M277.004 312.281C277.004 312.281 276.954 312.335 276.83 312.437L276.282 312.858L274.149 314.465L272.597 315.611C272.033 316.033 271.36 316.391 270.671 316.883L268.447 318.318C268.049 318.568 267.617 318.841 267.227 319.098L265.891 319.878C264.073 320.9 262.106 322.07 259.873 323.131C258.769 323.677 257.64 324.269 256.453 324.823L252.743 326.469C247.208 328.852 241.549 330.971 235.786 332.818C223.536 336.788 212.215 339.643 204.105 341.952C202.072 342.514 200.238 343.044 198.627 343.512C197.017 343.98 195.639 344.378 194.477 344.737L191.888 345.517L191.207 345.712C191.129 345.738 191.049 345.756 190.967 345.766L191.191 345.673L191.855 345.439L194.428 344.573C195.54 344.191 196.918 343.793 198.528 343.278C200.138 342.763 201.956 342.233 203.981 341.656C212.073 339.269 223.386 336.375 235.612 332.413C241.738 330.455 247.44 328.271 252.544 326.11L256.246 324.48C257.441 323.934 258.57 323.349 259.674 322.811C261.907 321.766 263.874 320.611 265.7 319.613L267.036 318.872C267.459 318.622 267.866 318.357 268.264 318.092L270.58 316.68C271.269 316.235 271.941 315.853 272.514 315.44L274.083 314.317L276.266 312.757L276.847 312.367L277.004 312.281Z" fill="#455A64"/>
<path id="Vector_199" d="M278.631 318.872C278.426 319.014 278.199 319.127 277.959 319.207C277.511 319.394 276.855 319.652 276.033 319.933C273.89 320.675 271.693 321.275 269.46 321.727C267.224 322.175 264.958 322.477 262.678 322.631C261.807 322.686 261.093 322.709 260.603 322.709C260.348 322.727 260.092 322.714 259.84 322.67C260.771 322.513 261.71 322.404 262.654 322.343C264.38 322.163 266.804 321.851 269.368 321.329C271.933 320.806 274.274 320.167 275.934 319.667C276.817 319.356 277.717 319.091 278.631 318.872V318.872Z" fill="#455A64"/>
<path id="Vector_200" d="M246.261 284.63C246.336 284.723 231.985 295.324 214.207 308.303C196.428 321.282 181.953 331.75 181.886 331.656C181.82 331.562 196.162 320.97 213.941 307.983C231.72 294.996 246.195 284.544 246.261 284.63Z" fill="#455A64"/>
<path id="Vector_201" d="M242.36 337.046C239.148 335.439 235.537 336.391 232.458 337.366C230.408 338.013 228.308 339.043 226.2 338.489C224.698 338.091 223.577 336.929 222.423 335.954C220.096 333.942 217.363 332.389 214.387 331.386C211.411 330.382 208.25 329.949 205.093 330.112C203.29 330.193 201.587 330.915 200.329 332.132C197.167 335.353 199.549 339.534 202.379 342.272C207.422 347.088 214.08 350.12 221.228 350.852C227.113 351.429 235.205 350.665 241.148 348.262C244.825 346.78 246.709 342.701 244.784 339.409C244.241 338.415 243.398 337.593 242.36 337.046V337.046Z" fill="#F3DE8A"/>
<g id="Group_12" opacity="0.4">
<path id="Vector_202" opacity="0.4" d="M242.36 339.62C239.14 338.013 235.529 338.965 232.45 339.94C230.4 340.587 228.3 341.617 226.192 341.063C224.689 340.665 223.569 339.503 222.415 338.528C220.088 336.516 217.355 334.963 214.379 333.96C211.402 332.956 208.242 332.523 205.085 332.686C203.282 332.767 201.579 333.489 200.321 334.706C199.684 335.344 199.228 336.121 198.993 336.968C199.602 338.976 200.768 340.795 202.371 342.241C207.413 347.057 214.072 350.088 221.22 350.821C227.105 351.398 235.197 350.633 241.14 348.231C242.195 347.809 243.129 347.159 243.866 346.333C244.603 345.508 245.122 344.531 245.381 343.481C245.194 342.675 244.826 341.916 244.3 341.256C243.775 340.595 243.105 340.048 242.335 339.651L242.36 339.62Z" fill="black"/>
</g>
<path id="Vector_203" d="M245.431 343.45C245.292 342.81 245.024 342.201 244.643 341.656C244.181 341.037 243.598 340.507 242.924 340.096C242.037 339.532 241.023 339.169 239.961 339.035C237.579 338.77 234.807 339.713 231.736 340.493C230.217 340.876 228.557 341.453 226.756 341.273C225.846 341.163 224.97 340.876 224.183 340.431C223.4 339.972 222.661 339.45 221.975 338.871C219.471 336.635 216.465 334.955 213.177 333.957C211.757 333.504 210.291 333.185 208.803 333.005C207.51 332.83 206.196 332.83 204.902 333.005C203.845 333.156 202.826 333.489 201.898 333.988C201.202 334.367 200.573 334.843 200.03 335.4C199.2 336.375 198.893 337.038 198.843 337.007C199.101 336.389 199.459 335.813 199.906 335.299C200.423 334.686 201.046 334.158 201.748 333.739C202.696 333.194 203.747 332.828 204.844 332.662C206.165 332.478 207.507 332.478 208.828 332.662C210.343 332.833 211.836 333.144 213.285 333.59C214.885 334.09 216.43 334.733 217.9 335.509C218.683 335.916 219.435 336.375 220.149 336.882C220.871 337.412 221.544 337.99 222.241 338.551C222.908 339.128 223.628 339.65 224.391 340.111C225.125 340.522 225.942 340.787 226.789 340.891C228.449 341.102 230.109 340.556 231.628 340.181C234.691 339.401 237.505 338.489 240.003 338.793C240.968 338.924 241.893 339.245 242.717 339.736C243.541 340.226 244.246 340.875 244.784 341.64C245.067 342.058 245.269 342.521 245.381 343.005C245.414 343.151 245.431 343.3 245.431 343.45V343.45Z" fill="#263238"/>
<path id="Vector_204" d="M245.431 343.45C245.292 342.81 245.024 342.201 244.643 341.656C244.181 341.037 243.598 340.507 242.924 340.096C242.037 339.532 241.023 339.169 239.961 339.035C237.579 338.77 234.807 339.713 231.736 340.493C230.217 340.876 228.557 341.453 226.756 341.273C225.846 341.163 224.97 340.876 224.183 340.431C223.4 339.972 222.661 339.45 221.975 338.871C219.471 336.635 216.465 334.955 213.177 333.957C211.757 333.504 210.291 333.185 208.803 333.005C207.51 332.83 206.196 332.83 204.902 333.005C203.845 333.156 202.826 333.489 201.898 333.988C201.202 334.367 200.573 334.843 200.03 335.4C199.2 336.375 198.893 337.038 198.843 337.007C199.101 336.389 199.459 335.813 199.906 335.299C200.423 334.686 201.046 334.158 201.748 333.739C202.696 333.194 203.747 332.828 204.844 332.662C206.165 332.478 207.507 332.478 208.828 332.662C210.343 332.833 211.836 333.144 213.285 333.59C214.885 334.09 216.43 334.733 217.9 335.509C218.683 335.916 219.435 336.375 220.149 336.882C220.871 337.412 221.544 337.99 222.241 338.551C222.908 339.128 223.628 339.65 224.391 340.111C225.125 340.522 225.942 340.787 226.789 340.891C228.449 341.102 230.109 340.556 231.628 340.181C234.691 339.401 237.505 338.489 240.003 338.793C240.968 338.924 241.893 339.245 242.717 339.736C243.541 340.226 244.246 340.875 244.784 341.64C245.067 342.058 245.269 342.521 245.381 343.005C245.414 343.151 245.431 343.3 245.431 343.45V343.45Z" fill="#263238"/>
<path id="Vector_205" d="M205.533 342.716C206.039 342.3 206.597 341.941 207.193 341.648C208.571 340.865 209.992 340.151 211.451 339.511C212.91 338.864 214.403 338.289 215.925 337.787C216.544 337.549 217.19 337.379 217.85 337.28C217.271 337.592 216.663 337.853 216.032 338.06C214.895 338.504 213.335 339.128 211.633 339.877C209.932 340.626 208.43 341.359 207.342 341.897C206.77 342.227 206.164 342.501 205.533 342.716V342.716Z" fill="#263238"/>
<path id="Vector_206" d="M206.67 345.743C208.696 344.597 210.794 343.568 212.953 342.662C215.051 341.636 217.213 340.729 219.427 339.947C217.401 341.093 215.303 342.122 213.144 343.028C211.047 344.058 208.885 344.964 206.67 345.743V345.743Z" fill="#263238"/>
<path id="Vector_207" d="M219.95 347.053C219.884 347.147 216.456 345.228 212.297 342.763C208.139 340.298 204.827 338.216 204.827 338.122C204.827 338.029 208.313 339.947 212.48 342.42C216.647 344.893 220.033 346.96 219.95 347.053Z" fill="#263238"/>
<path id="Vector_208" d="M221.892 343.918C221.306 343.615 220.75 343.263 220.232 342.865C219.228 342.178 217.834 341.234 216.273 340.22C214.713 339.206 213.294 338.309 212.256 337.662C211.665 337.346 211.109 336.975 210.596 336.554C211.228 336.781 211.832 337.072 212.397 337.42C213.476 338.005 214.945 338.871 216.547 339.885C218.149 340.899 219.485 341.89 220.448 342.638C220.984 343.007 221.469 343.437 221.892 343.918V343.918Z" fill="#263238"/>
</g>
</g>
</svg>
