<svg width="42" height="32" viewBox="0 0 42 32" fill="none" xmlns="http://www.w3.org/2000/svg">
<g clip-path="url(#clip0)">
<path d="M3.692 21.72C3.868 21.762 4.107 21.979 4.176 22.177L4.526 23.021C4.605 23.183 4.59 23.504 4.496 23.658L3.099 25.942C2.8 26.432 2.862 27.126 3.264 27.576L4.447 28.758C4.859 29.124 5.586 29.19 6.06 28.903L8.344 27.506C8.487 27.418 8.794 27.387 9.009 27.488L9.852 27.836C10.022 27.895 10.239 28.133 10.281 28.309L10.908 30.913C11.041 31.465 11.568 31.919 12.134 31.971C12.134 31.971 12.481 32.003 13.001 32.003C13.521 32.003 13.868 31.971 13.869 31.971C14.1555 31.9372 14.4253 31.8184 14.6437 31.6298C14.862 31.4412 15.0189 31.1915 15.094 30.913L15.722 28.309C15.764 28.134 15.98 27.895 16.178 27.826L17.022 27.476C17.171 27.403 17.516 27.418 17.659 27.506L19.943 28.903C20.144 29.026 20.384 29.091 20.639 29.091C20.984 29.091 21.318 28.97 21.577 28.739L22.759 27.556C22.9464 27.3348 23.0609 27.0612 23.0868 26.7725C23.1128 26.4837 23.0489 26.194 22.904 25.943L21.507 23.659C21.413 23.505 21.398 23.184 21.489 22.994L21.837 22.151C21.896 21.981 22.134 21.764 22.31 21.722L24.914 21.095C25.1926 21.0196 25.4422 20.8625 25.6307 20.644C25.8193 20.4255 25.9381 20.1556 25.972 19.869C25.972 19.869 26.004 19.522 26.004 19.002C26.004 18.482 25.972 18.135 25.972 18.134C25.938 17.8474 25.8191 17.5776 25.6306 17.3591C25.442 17.1407 25.1925 16.9836 24.914 16.908L22.311 16.282C22.135 16.24 21.896 16.023 21.827 15.825L21.477 14.981C21.398 14.819 21.413 14.498 21.507 14.344L22.904 12.06C23.203 11.57 23.141 10.876 22.739 10.426L21.556 9.244C21.143 8.877 20.415 8.811 19.943 9.099L17.659 10.496C17.516 10.583 17.208 10.616 16.994 10.514L16.151 10.166C15.981 10.107 15.765 9.869 15.723 9.693L15.095 7.089C15.0196 6.81044 14.8625 6.56083 14.644 6.37228C14.4255 6.18373 14.1556 6.06487 13.869 6.031C13.867 6.032 13.52 6 13 6C12.48 6 12.133 6.032 12.132 6.032C11.8454 6.066 11.5756 6.18491 11.3571 6.37343C11.1387 6.56196 10.9816 6.8115 10.906 7.09L10.28 9.692C10.238 9.868 10.021 10.107 9.823 10.176L8.979 10.526C8.829 10.599 8.485 10.583 8.342 10.496L6.059 9.099C5.586 8.811 4.874 8.861 4.425 9.263L3.243 10.446C3.05561 10.6672 2.94111 10.9408 2.91516 11.2295C2.88921 11.5183 2.95306 11.808 3.098 12.059L4.495 14.343C4.589 14.497 4.604 14.818 4.513 15.008L4.165 15.851C4.106 16.021 3.868 16.238 3.692 16.28L1.088 16.907C0.80944 16.9824 0.559827 17.1395 0.371278 17.358C0.18273 17.5765 0.0638726 17.8464 0.03 18.133C0.032 18.133 0 18.48 0 19C0 19.52 0.032 19.867 0.032 19.868C0.0660028 20.1546 0.184906 20.4244 0.373435 20.6429C0.561963 20.8613 0.811505 21.0184 1.09 21.094L3.692 21.72ZM1 19C1 18.542 1.027 18.233 1.028 18.223C1.04393 18.1452 1.07949 18.0727 1.1313 18.0125C1.1831 17.9523 1.24943 17.9064 1.324 17.879L3.928 17.252C4.433 17.13 4.942 16.668 5.1 16.205L5.424 15.418C5.652 14.951 5.62 14.265 5.349 13.821L3.952 11.538C3.885 11.427 3.904 11.207 3.97 11.132L5.111 9.99C5.202 9.909 5.434 9.889 5.538 9.952L7.822 11.349C8.255 11.614 8.997 11.632 9.39 11.437L10.178 11.111C10.669 10.942 11.131 10.433 11.253 9.927L11.879 7.324C11.9061 7.2492 11.952 7.18261 12.0122 7.13061C12.0725 7.07861 12.145 7.04294 12.223 7.027C12.233 7.027 12.542 7 13 7C13.458 7 13.767 7.027 13.777 7.028C13.8548 7.04393 13.9273 7.07949 13.9875 7.1313C14.0477 7.1831 14.0936 7.24943 14.121 7.324L14.748 9.927C14.87 10.432 15.331 10.942 15.795 11.1L16.582 11.424C17.039 11.648 17.747 11.613 18.179 11.349L20.462 9.952C20.566 9.889 20.812 9.922 20.868 9.97L22.01 11.111C22.096 11.208 22.115 11.427 22.048 11.538L20.651 13.822C20.38 14.265 20.348 14.952 20.563 15.39L20.889 16.178C21.058 16.669 21.567 17.131 22.073 17.253L24.676 17.879C24.7508 17.9061 24.8174 17.952 24.8694 18.0122C24.9214 18.0725 24.9571 18.145 24.973 18.223C24.973 18.233 25 18.542 25 19C25 19.458 24.973 19.767 24.972 19.777C24.9561 19.8548 24.9205 19.9273 24.8687 19.9875C24.8169 20.0477 24.7506 20.0936 24.676 20.121L22.072 20.748C21.567 20.87 21.058 21.332 20.9 21.795L20.576 22.582C20.348 23.049 20.38 23.735 20.651 24.179L22.048 26.462C22.115 26.573 22.096 26.793 22.03 26.868L20.889 28.01C20.8167 28.064 20.7282 28.0919 20.638 28.089C20.5771 28.091 20.5167 28.0768 20.463 28.048L18.179 26.651C17.747 26.387 17.005 26.368 16.611 26.563L15.823 26.889C15.332 27.058 14.87 27.568 14.749 28.073L14.122 30.676C14.0949 30.7508 14.049 30.8174 13.9888 30.8694C13.9285 30.9214 13.856 30.9571 13.778 30.973C13.767 30.973 13.458 31 13 31C12.542 31 12.233 30.973 12.223 30.972C12.1452 30.9561 12.0727 30.9205 12.0125 30.8687C11.9523 30.8169 11.9064 30.7506 11.879 30.676L11.252 28.072C11.13 27.567 10.668 27.058 10.205 26.9L9.418 26.576C9.19421 26.472 8.94976 26.42 8.703 26.424C8.374 26.424 8.061 26.505 7.821 26.652L5.538 28.049C5.434 28.112 5.187 28.078 5.132 28.031L3.99 26.889C3.904 26.792 3.885 26.573 3.952 26.462L5.349 24.178C5.62 23.735 5.652 23.048 5.437 22.61L5.111 21.822C4.942 21.331 4.433 20.869 3.927 20.747L1.324 20.121C1.2492 20.0939 1.18261 20.048 1.13061 19.9878C1.07861 19.9275 1.04294 19.855 1.027 19.777C1.027 19.767 1 19.458 1 19V19Z" fill="#1A2151" fill-opacity="0.7"/>
<path d="M13 24.5C16.033 24.5 18.5 22.033 18.5 19C18.5 15.967 16.033 13.5 13 13.5C9.967 13.5 7.5 15.967 7.5 19C7.5 22.033 9.967 24.5 13 24.5ZM13 14.5C15.481 14.5 17.5 16.519 17.5 19C17.5 21.481 15.481 23.5 13 23.5C10.519 23.5 8.5 21.481 8.5 19C8.5 16.519 10.519 14.5 13 14.5Z" fill="#1A2151" fill-opacity="0.7"/>
<path d="M27.4771 5.314C27.41 5.38937 27.3181 5.4383 27.2181 5.452L25.3571 5.434C25.1274 5.4401 24.9048 5.51425 24.7173 5.64706C24.5298 5.77987 24.386 5.96536 24.3041 6.18C24.3041 6.18 24.2221 6.413 24.1321 6.77C24.0421 7.127 24.0041 7.371 24.0041 7.371C23.9341 7.822 24.1851 8.321 24.5881 8.532L26.2291 9.392C26.3171 9.45865 26.3764 9.55624 26.3951 9.665L26.4881 10.3C26.494 10.4003 26.4643 10.4995 26.4041 10.58L25.0821 11.876C24.7511 12.2 24.6641 12.754 24.8921 13.189L25.4911 14.189C25.7441 14.561 26.2921 14.751 26.7221 14.617L28.5461 14.059C28.6451 14.059 28.7441 14.097 28.8001 14.142L29.3151 14.522C29.3901 14.5895 29.4389 14.6812 29.4531 14.781L29.4351 16.633C29.4311 17.089 29.7511 17.546 30.1811 17.696C30.1811 17.696 30.4141 17.778 30.7711 17.868C31.1281 17.958 31.3721 17.996 31.3721 17.996C31.3981 18 31.5021 18.008 31.5281 18.008C31.7332 18.0054 31.9339 17.949 32.1103 17.8444C32.2867 17.7398 32.4325 17.5907 32.5331 17.412L33.3931 15.771C33.4598 15.683 33.5573 15.6237 33.6661 15.605L34.3291 15.509C34.4291 15.509 34.5471 15.561 34.5801 15.595L35.8761 16.917C36.1911 17.239 36.7221 17.354 37.1891 17.107L38.1881 16.508C38.5701 16.248 38.7551 15.718 38.6171 15.277L38.0651 13.51C38.0504 13.4002 38.0783 13.2889 38.1431 13.199L38.5231 12.684C38.5903 12.6086 38.6821 12.5597 38.7821 12.546L40.6431 12.564C40.8728 12.5579 41.0955 12.4838 41.2829 12.3509C41.4704 12.2181 41.6142 12.0326 41.6961 11.818C41.6961 11.818 41.7781 11.585 41.8681 11.228C41.9581 10.871 41.9961 10.627 41.9961 10.627C42.0258 10.3973 41.986 10.164 41.882 9.95704C41.7779 9.75013 41.6142 9.5791 41.4121 9.466L39.7711 8.606C39.6831 8.53936 39.6238 8.44177 39.6051 8.333L39.5131 7.7C39.5072 7.59968 39.537 7.50051 39.5971 7.42L40.9191 6.124C41.2501 5.8 41.3371 5.246 41.1091 4.811L40.5101 3.811C40.2571 3.44 39.7101 3.248 39.2791 3.382L37.4541 3.94C37.3628 3.93988 37.2739 3.91082 37.2001 3.857L36.6851 3.477C36.6102 3.40953 36.5613 3.31785 36.5471 3.218L36.5651 1.366C36.5613 1.13455 36.4881 0.909568 36.3551 0.720089C36.2222 0.530609 36.0355 0.385331 35.8191 0.303004C35.8191 0.303004 35.5861 0.221004 35.2291 0.131004C34.8721 0.0410044 34.6281 0.00300439 34.6281 0.00300439C34.5762 -0.00215396 34.5242 -0.00582214 34.4721 -0.00799561C34.2671 -0.0054414 34.0663 0.050964 33.8899 0.155568C33.7135 0.260172 33.5677 0.409299 33.4671 0.588004L32.6071 2.229C32.5405 2.31696 32.4429 2.3763 32.3341 2.395L31.6711 2.49C31.5806 2.48804 31.4928 2.45799 31.4201 2.404L30.1241 1.082C29.9547 0.913464 29.7355 0.803973 29.499 0.769751C29.2626 0.735529 29.0213 0.778397 28.8111 0.892004L27.8111 1.49C27.4291 1.75 27.2441 2.28 27.3821 2.721L27.9341 4.488C27.9489 4.59783 27.9209 4.70914 27.8561 4.799L27.4771 5.314V5.314ZM28.2971 5.886L28.6401 5.42C28.9081 5.103 29.0121 4.586 28.8881 4.191L28.3371 2.425C28.3321 2.397 28.3541 2.334 28.3491 2.333L29.2971 1.765L29.4101 1.782L30.7071 3.104C30.9371 3.338 31.3161 3.49 31.6721 3.49C31.7406 3.49108 31.809 3.48471 31.8761 3.471L32.4511 3.386C32.6671 3.35981 32.8739 3.28339 33.055 3.16287C33.2362 3.04236 33.3865 2.88109 33.4941 2.692L34.3531 1.052C34.384 1.01732 34.4269 0.995547 34.4731 0.991004C34.4841 0.992004 34.6881 1.026 34.9861 1.1C35.2831 1.175 35.4791 1.242 35.4881 1.246C35.5191 1.259 35.5641 1.324 35.5661 1.356L35.5481 3.208C35.5441 3.622 35.7931 4.087 36.1151 4.297L36.5801 4.64C36.8891 4.901 37.4191 5.011 37.8091 4.888L39.5831 4.336C39.6251 4.336 39.6721 4.362 39.6661 4.349L40.2341 5.297C40.2451 5.323 40.2341 5.389 40.2171 5.41L38.8951 6.707C38.6001 6.998 38.4471 7.502 38.5281 7.876L38.6121 8.451C38.6481 8.863 38.9401 9.30201 39.3071 9.49401L40.9471 10.353C40.9815 10.3842 41.0032 10.4269 41.0081 10.473C40.9788 10.6454 40.9424 10.8166 40.8991 10.986C40.8576 11.1553 40.8089 11.3228 40.7531 11.488C40.7401 11.519 40.6751 11.564 40.6431 11.566L38.7811 11.548C38.3701 11.548 37.9101 11.797 37.7021 12.115L37.3601 12.58C37.2251 12.751 37.1323 12.9513 37.0892 13.1649C37.0461 13.3784 37.054 13.5991 37.1121 13.809L37.6631 15.575C37.6681 15.602 37.6461 15.666 37.6511 15.667L36.7031 16.235L36.5901 16.218L35.2931 14.896C35.0631 14.662 34.6841 14.51 34.3281 14.51C34.2596 14.5089 34.1912 14.5153 34.1241 14.529L33.5491 14.614C33.3331 14.6402 33.1263 14.7166 32.9452 14.8371C32.7641 14.9577 32.6137 15.1189 32.5061 15.308L31.6471 16.948C31.6162 16.9827 31.5734 17.0045 31.5271 17.009C31.3547 16.9797 31.1835 16.9433 31.0141 16.9C30.8448 16.8585 30.6773 16.8098 30.5121 16.754C30.4811 16.741 30.4361 16.676 30.4341 16.644L30.4521 14.792C30.4561 14.378 30.2071 13.913 29.8851 13.703L29.4201 13.36C29.249 13.2249 29.0485 13.1321 28.8348 13.089C28.6211 13.0459 28.4002 13.0538 28.1901 13.112L26.4161 13.664C26.3731 13.664 26.3261 13.641 26.3331 13.651L25.7651 12.703C25.7541 12.677 25.7651 12.611 25.7821 12.59L27.1041 11.293C27.3991 11.002 27.5521 10.498 27.4711 10.124L27.3871 9.55C27.3609 9.33392 27.2843 9.127 27.1636 8.94586C27.0429 8.76472 26.8814 8.61441 26.6921 8.507L25.0521 7.648C25.0177 7.61685 24.996 7.57414 24.9911 7.528C24.9921 7.517 25.0261 7.313 25.1001 7.015C25.1751 6.718 25.2421 6.522 25.2461 6.513C25.2591 6.482 25.3241 6.437 25.3561 6.435L27.2181 6.453C27.6291 6.453 28.0891 6.204 28.2971 5.886V5.886Z" fill="#1A2151" fill-opacity="0.7"/>
<path d="M33 12C34.654 12 36 10.654 36 9C36 7.346 34.654 6 33 6C31.346 6 30 7.346 30 9C30 10.654 31.346 12 33 12ZM33 7C34.103 7 35 7.897 35 9C35 10.103 34.103 11 33 11C31.897 11 31 10.103 31 9C31 7.897 31.897 7 33 7Z" fill="#1A2151" fill-opacity="1.0"/>
</g>
<defs>
<clipPath id="clip0">
<rect width="42" height="32" fill="white"/>
</clipPath>
</defs>
</svg>
