<svg width="24" height="24" viewBox="0 0 24 24" fill="none" xmlns="http://www.w3.org/2000/svg">
<path d="M9.6 10.2C9.6 10.6774 9.41036 11.1352 9.07279 11.4728C8.73523 11.8104 8.27739 12 7.8 12C7.32261 12 6.86477 11.8104 6.52721 11.4728C6.18964 11.1352 6 10.6774 6 10.2C6 9.72261 6.18964 9.26477 6.52721 8.92721C6.86477 8.58964 7.32261 8.4 7.8 8.4C8.27739 8.4 8.73523 8.58964 9.07279 8.92721C9.41036 9.26477 9.6 9.72261 9.6 10.2Z" fill="#1A2151" fill-opacity="0.7"/>
<path d="M4.80005 14.0388C4.80005 13.41 5.31005 12.9 5.93885 12.9H9.66005C10.2888 12.9 10.7988 13.41 10.7988 14.0388C10.7988 15.0552 10.1064 15.9408 9.12005 16.188L9.04925 16.206C8.22845 16.41 7.36925 16.41 6.54845 16.206L6.47645 16.188C5.99744 16.0679 5.5723 15.7912 5.26857 15.4018C4.96484 15.0124 4.79993 14.5326 4.80005 14.0388Z" fill="#1A2151" fill-opacity="0.7"/>
<path d="M13.8 9.60001C13.6409 9.60001 13.4883 9.66322 13.3757 9.77574C13.2632 9.88826 13.2 10.0409 13.2 10.2C13.2 10.3591 13.2632 10.5117 13.3757 10.6243C13.4883 10.7368 13.6409 10.8 13.8 10.8H17.4C17.5591 10.8 17.7118 10.7368 17.8243 10.6243C17.9368 10.5117 18 10.3591 18 10.2C18 10.0409 17.9368 9.88826 17.8243 9.77574C17.7118 9.66322 17.5591 9.60001 17.4 9.60001H13.8Z" fill="#1A2151" fill-opacity="0.7"/>
<path d="M13.8 13.2C13.6409 13.2 13.4883 13.2632 13.3757 13.3757C13.2632 13.4883 13.2 13.6409 13.2 13.8C13.2 13.9591 13.2632 14.1117 13.3757 14.2243C13.4883 14.3368 13.6409 14.4 13.8 14.4H17.4C17.5591 14.4 17.7118 14.3368 17.8243 14.2243C17.9368 14.1117 18 13.9591 18 13.8C18 13.6409 17.9368 13.4883 17.8243 13.3757C17.7118 13.2632 17.5591 13.2 17.4 13.2H13.8Z" fill="#1A2151" fill-opacity="0.7"/>
<path d="M2.40002 6.9C2.40002 5.7408 3.34082 4.8 4.50002 4.8H19.5C20.6592 4.8 21.6 5.7408 21.6 6.9V17.1C21.6 17.657 21.3788 18.1911 20.9849 18.5849C20.5911 18.9788 20.057 19.2 19.5 19.2H4.50002C3.94307 19.2 3.40893 18.9788 3.0151 18.5849C2.62127 18.1911 2.40002 17.657 2.40002 17.1V6.9ZM4.50002 6C4.26133 6 4.03241 6.09482 3.86363 6.26361C3.69485 6.43239 3.60002 6.66131 3.60002 6.9V17.1C3.60002 17.5968 4.00322 18 4.50002 18H19.5C19.7387 18 19.9676 17.9052 20.1364 17.7364C20.3052 17.5676 20.4 17.3387 20.4 17.1V6.9C20.4 6.66131 20.3052 6.43239 20.1364 6.26361C19.9676 6.09482 19.7387 6 19.5 6H4.50002Z" fill="#1A2151" fill-opacity="0.7"/>
</svg>
