<svg width="24" height="24" viewBox="0 0 24 24" fill="none" xmlns="http://www.w3.org/2000/svg">
<path d="M12 11C11.2044 11 10.4413 10.6839 9.87868 10.1213C9.31607 9.55871 9 8.79565 9 8C9 7.20435 9.31607 6.44129 9.87868 5.87868C10.4413 5.31607 11.2044 5 12 5C12.7956 5 13.5587 5.31607 14.1213 5.87868C14.6839 6.44129 15 7.20435 15 8C15 8.79565 14.6839 9.55871 14.1213 10.1213C13.5587 10.6839 12.7956 11 12 11Z" stroke="rgba(26, 33, 81, 0.7)" stroke-width="2" stroke-linecap="round"/>
<path d="M6 19V18C6 16.9391 6.42143 15.9217 7.17157 15.1716C7.92172 14.4214 8.93913 14 10 14H14C15.0609 14 16.0783 14.4214 16.8284 15.1716C17.5786 15.9217 18 16.9391 18 18V19" stroke="rgba(26, 33, 81, 0.7)" stroke-width="2" stroke-linecap="round"/>
</svg>
