<svg width="12" height="12" viewBox="0 0 12 12" fill="none" xmlns="http://www.w3.org/2000/svg">
<path d="M9.45 10.15L6.65 7.35C6.4 7.55 6.1125 7.70833 5.7875 7.825C5.4625 7.94167 5.11667 8 4.75 8C3.84167 8 3.073 7.6855 2.444 7.0565C1.81467 6.42717 1.5 5.65833 1.5 4.75C1.5 3.84167 1.81467 3.07283 2.444 2.4435C3.073 1.8145 3.84167 1.5 4.75 1.5C5.65833 1.5 6.42717 1.8145 7.0565 2.4435C7.6855 3.07283 8 3.84167 8 4.75C8 5.11667 7.94167 5.4625 7.825 5.7875C7.70833 6.1125 7.55 6.4 7.35 6.65L10.1625 9.4625C10.2542 9.55417 10.3 9.66667 10.3 9.8C10.3 9.93333 10.25 10.05 10.15 10.15C10.0583 10.2417 9.94167 10.2875 9.8 10.2875C9.65833 10.2875 9.54167 10.2417 9.45 10.15ZM4.75 7C5.375 7 5.90633 6.78133 6.344 6.344C6.78133 5.90633 7 5.375 7 4.75C7 4.125 6.78133 3.59367 6.344 3.156C5.90633 2.71867 5.375 2.5 4.75 2.5C4.125 2.5 3.59367 2.71867 3.156 3.156C2.71867 3.59367 2.5 4.125 2.5 4.75C2.5 5.375 2.71867 5.90633 3.156 6.344C3.59367 6.78133 4.125 7 4.75 7Z" fill="black" fill-opacity="0.7"/>
</svg>
