<svg width="24" height="24" viewBox="0 0 24 24" fill="none" xmlns="http://www.w3.org/2000/svg">
<path d="M21.4859 16.2166C21.5231 16.2804 21.5474 16.3509 21.5574 16.4241C21.5674 16.4973 21.5628 16.5717 21.544 
16.6432C21.5252 16.7146 21.4925 16.7816 21.4478 16.8405C21.4031 16.8993 21.3472 16.9487 21.2834 16.9859L12.2834 
22.2359C12.1974 22.2861 12.0996 22.3125 12 22.3125C11.9004 22.3125 11.8026 22.2861 11.7166 22.2359L2.71661 
16.9859C2.58774 16.9107 2.49401 16.7874 2.45603 16.6432C2.41806 16.4989 2.43895 16.3455 2.51411 16.2166C2.58928 
16.0877 2.71255 15.994 2.85683 15.956C3.0011 15.918 3.15455 15.9389 3.28342 16.0141L12 21.0988L20.7166 16.0141C20.7804 
15.9769 20.8509 15.9526 20.9241 15.9426C20.9973 15.9326 21.0718 15.9372 21.1432 15.956C21.2146 15.9748 21.2817 16.0075 
21.3405 16.0522C21.3993 16.0969 21.4487 16.1528 21.4859 16.2166ZM20.7166 11.5141L12 16.5988L3.28342 11.5141C3.15455 
11.4389 3.0011 11.418 2.85683 11.456C2.71255 11.494 2.58928 11.5877 2.51411 11.7166C2.43895 11.8455 2.41806 11.9989 
2.45603 12.1432C2.49401 12.2874 2.58774 12.4107 2.71661 12.4859L11.7166 17.7359C11.8026 17.7861 11.9004 17.8125 12 
17.8125C12.0996 17.8125 12.1974 17.7861 12.2834 17.7359L21.2834 12.4859C21.3472 12.4487 21.4031 12.3993 21.4478 
12.3405C21.4925 12.2816 21.5252 12.2146 21.544 12.1432C21.5628 12.0717 21.5674 11.9973 21.5574 11.9241C21.5474 
11.8509 21.5231 11.7804 21.4859 11.7166C21.4487 11.6528 21.3993 11.5969 21.3405 11.5522C21.2817 11.5075 21.2146 
11.4748 21.1432 11.456C20.9989 11.418 20.8455 11.4389 20.7166 11.5141ZM2.43752 7.49999C2.43751 7.40167 2.46328 7.30506 
2.51225 7.21981C2.56122 7.13455 2.63168 7.06362 2.71661 7.01408L11.7166 1.76408C11.8026 1.71391 11.9004 1.68747 12 
1.68747C12.0996 1.68747 12.1974 1.71391 12.2834 1.76408L21.2834 7.01408C21.3684 7.06361 21.4388 7.13454 21.4878 
7.2198C21.5368 7.30506 21.5625 7.40166 21.5625 7.49999C21.5625 7.59831 21.5368 7.69492 21.4878 7.78017C21.4388 
7.86543 21.3684 7.93636 21.2834 7.98589L12.2834 13.2359C12.1974 13.2861 12.0996 13.3125 12 13.3125C11.9004 13.3125 
11.8026 13.2861 11.7166 13.2359L2.71661 7.98589C2.63168 7.93636 2.56122 7.86542 2.51225 7.78017C2.46328 7.69491 
2.43751 7.59831 2.43752 7.49999ZM4.11639 7.49999L12 12.0988L19.8836 7.49999L12 2.90118L4.11639 7.49999Z" fill="rgba(26, 33, 81, 0.7)"/>
</svg>
