<svg width="32" height="32" viewBox="0 0 32 32" fill="none" xmlns="http://www.w3.org/2000/svg">
<path d="M28.0466 7.00935C29.2599 8.46535 29.8653 10.164 29.8653 12.1054C29.8653 19.1414 25.8626 21.204 22.1013 21.8107C22.5866 22.66 22.7079 23.6307 22.7079 24.6014V29.5747C22.7079 30.1814 22.3439 30.5454 21.8586 30.5454C21.7306 30.5472 21.6036 30.5233 21.485 30.4751C21.3665 30.427 21.2587 30.3555 21.1682 30.2651C21.0778 30.1746 21.0063 30.0668 20.9582 29.9483C20.91 29.8297 20.8862 29.7027 20.8879 29.5747V24.6014C20.9519 24.0929 20.8975 23.5765 20.7291 23.0924C20.5608 22.6084 20.2829 22.1698 19.9173 21.8107L20.5239 20.2334C24.2853 19.748 28.1679 18.5347 28.1679 11.984C28.1679 10.4067 27.5613 8.95069 26.4693 7.73735L26.2266 6.76802C26.688 5.60542 26.7304 4.31849 26.3466 3.12802C25.7413 3.24802 24.5279 3.49202 22.4666 4.94802L21.7373 5.06802C18.8716 4.34037 15.8696 4.34037 13.0039 5.06802L12.2746 4.94802C10.0933 3.61335 8.87995 3.24935 8.27195 3.24935C7.90795 4.46269 7.90795 5.79602 8.39195 6.88935L8.15061 7.85869C6.93728 9.07202 6.33061 10.6494 6.33061 12.1054C6.33061 18.5347 9.97061 19.8694 13.9733 20.3547L14.4586 21.932C13.7306 22.66 13.3666 23.6307 13.4879 24.6014V29.696C13.4897 29.824 13.4659 29.951 13.4177 30.0696C13.3696 30.1882 13.2981 30.2959 13.2076 30.3864C13.1171 30.4769 13.0094 30.5483 12.8909 30.5965C12.7723 30.6446 12.6452 30.6685 12.5173 30.6667C12.3893 30.6685 12.2623 30.6446 12.1437 30.5965C12.0251 30.5483 11.9174 30.4769 11.8269 30.3864C11.7364 30.2959 11.665 30.1882 11.6168 30.0696C11.5687 29.951 11.5448 29.824 11.5466 29.696V26.9067C7.54395 27.756 5.96661 25.6934 4.75328 24.1174C4.14661 23.3894 3.66128 22.7827 3.05461 22.6614C2.93461 22.54 2.56928 22.0547 2.69061 21.5694C2.81195 21.084 3.29728 20.72 3.78395 20.9627C4.99728 21.2054 5.72395 22.176 6.45061 23.0254C7.54395 24.4814 8.63595 25.8147 11.9106 25.088V24.6027C11.7906 23.632 12.0319 22.6614 12.5173 21.812C8.87728 21.084 4.63195 19.0214 4.63195 12.1067C4.63195 10.1654 5.23861 8.46669 6.45195 7.01069C6.08795 5.31335 6.20928 3.49335 6.81595 2.03735L7.42261 1.55202C7.66528 1.43069 9.36395 1.06669 12.8799 3.24935C15.7871 2.52145 18.8288 2.52145 21.7359 3.24935C25.1346 0.944021 26.9546 1.30669 27.1973 1.42935L27.8039 1.91469C28.4106 3.61335 28.5319 5.31202 28.0466 7.00935V7.00935Z" fill="#1A2151"/>
</svg>
