<svg width="32" height="32" viewBox="0 0 32 32" fill="none" xmlns="http://www.w3.org/2000/svg">
<path d="M30.6666 4.01341C30.6666 4.01341 27.9759 5.60274 26.4799 6.05341C25.6769 5.13009 24.6097 4.47566 23.4226 4.17864C22.2356 3.88162 20.9859 3.95634 19.8427 4.39268C18.6995 4.82902 17.7178 5.60594 17.0306 6.61836C16.3433 7.63078 15.9835 8.82986 15.9999 10.0534V11.3867C13.6568 11.4475 11.335 10.9278 9.24126 9.874C7.14758 8.82018 5.34701 7.26492 3.99992 5.34674C3.99992 5.34674 -1.33341 17.3467 10.6666 22.6801C7.92062 24.544 4.64946 25.4786 1.33325 25.3467C13.3333 32.0134 27.9999 25.3467 27.9999 10.0134C27.9999 9.64274 27.9626 9.27207 27.8933 8.90674C29.2533 7.56541 30.6666 4.01341 30.6666 4.01341Z" stroke="#1A2151" stroke-width="1.5" stroke-linecap="round" stroke-linejoin="round"/>
</svg>
