<svg width="32" height="32" viewBox="0 0 32 32" fill="none" xmlns="http://www.w3.org/2000/svg">
<path d="M12.5 10C12.5 10.2967 12.412 10.5867 12.2472 10.8334C12.0824 11.08 11.8481 11.2723 11.574 11.3858C11.2999 11.4994 10.9983 11.5291 10.7074 11.4712C10.4164 11.4133 10.1491 11.2704 9.93934 11.0607C9.72956 10.8509 9.5867 10.5836 9.52882 10.2926C9.47094 10.0017 9.50065 9.70006 9.61418 9.42597C9.72771 9.15189 9.91997 8.91762 10.1666 8.7528C10.4133 8.58797 10.7033 8.5 11 8.5C11.3978 8.5 11.7794 8.65804 12.0607 8.93934C12.342 9.22064 12.5 9.60218 12.5 10V10ZM28.5 5.5V26.5C28.4994 27.0303 28.2885 27.5386 27.9136 27.9136C27.5386 28.2885 27.0303 28.4994 26.5 28.5H5.5C4.96975 28.4994 4.46139 28.2885 4.08644 27.9136C3.7115 27.5386 3.5006 27.0303 3.5 26.5V5.5C3.5006 4.96975 3.7115 4.46139 4.08644 4.08644C4.46139 3.7115 4.96975 3.5006 5.5 3.5H26.5C27.0303 3.5006 27.5386 3.7115 27.9136 4.08644C28.2885 4.46139 28.4994 4.96975 28.5 5.5V5.5ZM26.5012 26.5L26.5 5.5H5.5V26.5H26.5H26.5012ZM11 13C10.7348 13 10.4804 13.1054 10.2929 13.2929C10.1054 13.4804 10 13.7348 10 14V22C10 22.2652 10.1054 22.5196 10.2929 22.7071C10.4804 22.8946 10.7348 23 11 23C11.2652 23 11.5196 22.8946 11.7071 22.7071C11.8946 22.5196 12 22.2652 12 22V14C12 13.7348 11.8946 13.4804 11.7071 13.2929C11.5196 13.1054 11.2652 13 11 13ZM18.5 13C17.599 12.999 16.7187 13.2701 15.9744 13.7778C15.9199 13.538 15.7789 13.3268 15.5785 13.1844C15.378 13.042 15.1321 12.9785 14.8878 13.006C14.6435 13.0335 14.4179 13.1501 14.2541 13.3335C14.0903 13.5168 13.9998 13.7541 14 14V22C14 22.2652 14.1054 22.5196 14.2929 22.7071C14.4804 22.8946 14.7348 23 15 23C15.2652 23 15.5196 22.8946 15.7071 22.7071C15.8946 22.5196 16 22.2652 16 22V17.5C16 16.837 16.2634 16.2011 16.7322 15.7322C17.2011 15.2634 17.837 15 18.5 15C19.163 15 19.7989 15.2634 20.2678 15.7322C20.7366 16.2011 21 16.837 21 17.5V22C21 22.2652 21.1054 22.5196 21.2929 22.7071C21.4804 22.8946 21.7348 23 22 23C22.2652 23 22.5196 22.8946 22.7071 22.7071C22.8946 22.5196 23 22.2652 23 22V17.5C22.9987 16.3069 22.5241 15.1631 21.6805 14.3195C20.8369 13.4759 19.6931 13.0013 18.5 13V13Z" fill="#1A2151"/>
</svg>
