<svg width="24" height="24" viewBox="0 0 24 24" fill="none" xmlns="http://www.w3.org/2000/svg">
<g clip-path="url(#clip0)">
<path d="M0 -2.28882e-05H24V24H0V-2.28882e-05Z" fill="#F7DF1E"/>
<path d="M6.31049 20.0561L8.14705 18.9446C8.50143 19.5728 8.82374 20.1044 9.5969 20.1044C10.338 20.1044 10.8053 19.8145 10.8053 18.6869V11.0183H13.0607V18.7188C13.0607 21.0547 11.6914 22.118 9.69355 22.118C7.88933 22.118 6.84205 21.1836 6.31039 20.0559" fill="black"/>
<path d="M14.2857 19.8144L16.1221 18.7512C16.6056 19.5406 17.2339 20.1206 18.3454 20.1206C19.28 20.1206 19.8758 19.6533 19.8758 19.0089C19.8758 18.2356 19.2636 17.9617 18.2326 17.5108L17.6689 17.2689C16.0416 16.5764 14.9623 15.7064 14.9623 13.8698C14.9623 12.1782 16.2511 10.8893 18.2649 10.8893C19.6987 10.8893 20.7298 11.3888 21.4708 12.6937L19.7147 13.8215C19.328 13.1288 18.9093 12.855 18.2648 12.855C17.6043 12.855 17.1854 13.2738 17.1854 13.8215C17.1854 14.4981 17.6043 14.7721 18.5708 15.191L19.1346 15.4326C21.0518 16.2543 22.1312 17.092 22.1312 18.9767C22.1312 21.0068 20.5363 22.1183 18.3936 22.1183C16.2994 22.1183 14.9461 21.1195 14.2856 19.8145" fill="black"/>
</g>
<defs>
<clipPath id="clip0">
<rect width="24" height="24" fill="white"/>
</clipPath>
</defs>
</svg>
