<svg width="24" height="24" viewBox="0 0 24 24" fill="none" xmlns="http://www.w3.org/2000/svg">
<path fill-rule="evenodd" clip-rule="evenodd" d="M3.24614 3.34295C3.43605 3.12505 3.71096 2.99998 4.00001 2.99998H20C20.2891 2.99998 20.564 3.12505 20.7539 3.34295C20.9438 3.56086 21.0301 3.85028 20.9906 4.13661L18.9906 18.6366C18.9386 19.0136 18.6772 19.3283 18.3162 19.4487L12.3162 21.4487C12.111 21.5171 11.889 21.5171 11.6838 21.4487L5.68378 19.4487C5.32279 19.3283 5.06138 19.0136 5.00939 18.6366L3.00939 4.13661C2.96989 3.85028 3.05623 3.56086 3.24614 3.34295ZM5.14741 4.99998L6.90572 17.7478L12 19.4459L17.0943 17.7478L18.8526 4.99998H5.14741Z" fill="black" fill-opacity="0.7"/>
<path fill-rule="evenodd" clip-rule="evenodd" d="M7.5 7.99998C7.5 7.44769 7.94772 6.99998 8.5 6.99998H15.5C15.9152 6.99998 16.2872 7.25652 16.4347 7.6446C16.5823 8.03267 16.4747 8.47156 16.1644 8.74739L13.6302 11H15C15.2899 11 15.5655 11.1258 15.7555 11.3448C15.9454 11.5638 16.0309 11.8544 15.99 12.1414L15.4899 15.6414C15.4348 16.0272 15.1606 16.3458 14.7873 16.4578L12.2873 17.2078C12.0999 17.264 11.9001 17.264 11.7127 17.2078L9.21265 16.4578C8.85854 16.3516 8.59193 16.0586 8.51942 15.6961L8.41942 15.1961C8.31111 14.6545 8.66232 14.1277 9.20388 14.0194C9.71465 13.9172 10.2123 14.2238 10.3581 14.7134L12 15.2059L13.6004 14.7258L13.847 13H11C10.5848 13 10.2128 12.7434 10.0653 12.3554C9.91773 11.9673 10.0253 11.5284 10.3356 11.2526L12.8698 8.99998H8.5C7.94772 8.99998 7.5 8.55226 7.5 7.99998Z" fill="black" fill-opacity="0.7"/>
</svg>
