<svg width="24" height="24" viewBox="0 0 24 24" fill="none" xmlns="http://www.w3.org/2000/svg">
<path d="M3.5865 17.0602L12.174 2.18548L12.945 2.63023L4.3575 17.505L3.5865 17.0602Z" fill="#E10098"/>
<path d="M3.40875 15.8715H20.5853V16.7617H3.40875V15.8715Z" fill="#E10098"/>
<path d="M3.7485 16.3717L4.194 15.6007L12.7853 20.5605L12.3398 21.3315L3.7485 16.3717Z" fill="#E10098"/>
<path d="M11.2125 3.44323L11.658 2.67223L20.2492 7.63273L19.8037 8.40373L11.2125 3.44323Z" fill="#E10098"/>
<path d="M3.75075 7.63048L12.342 2.66998L12.7875 3.44098L4.19625 8.40148L3.75075 7.63048Z" fill="#E10098"/>
<path d="M11.0573 2.63098L11.8283 2.18548L20.4158 17.0602L19.6455 17.505L11.0573 2.63098Z" fill="#E10098"/>
<path d="M4.0905 7.03948H4.98075V16.9605H4.0905V7.03948Z" fill="#E10098"/>
<path d="M19.02 7.03948H19.9103V16.9605H19.02V7.03948Z" fill="#E10098"/>
<path d="M11.7997 20.2815L19.272 15.9675L19.6612 16.641L12.189 20.955L11.7997 20.2815Z" fill="#E10098"/>
<path d="M21.09 17.25C20.9049 17.5715 20.6286 17.831 20.2961 17.9955C19.9635 18.1599 19.5896 18.222 19.2217 18.1739C18.8538 18.1258 18.5085 17.9696 18.2294 17.7251C17.9503 17.4807 17.75 17.1589 17.6539 16.8005C17.5578 16.4422 17.5701 16.0634 17.6894 15.712C17.8087 15.3607 18.0295 15.0527 18.3239 14.8269C18.6183 14.6011 18.9731 14.4678 19.3433 14.4437C19.7135 14.4196 20.0826 14.506 20.4037 14.6917C20.8336 14.9404 21.1472 15.3493 21.2759 15.8289C21.4045 16.3086 21.3377 16.8196 21.09 17.25Z" fill="#E10098"/>
<path d="M6.14999 8.62499C5.96493 8.94656 5.68863 9.20599 5.35606 9.37046C5.02348 9.53493 4.64959 9.59703 4.28171 9.54892C3.91382 9.5008 3.56848 9.34462 3.2894 9.10014C3.01032 8.85567 2.81004 8.53389 2.71391 8.17555C2.61779 7.8172 2.63013 7.43838 2.74939 7.08706C2.86865 6.73573 3.08946 6.42768 3.38387 6.2019C3.67828 5.97612 4.03306 5.84276 4.4033 5.8187C4.77353 5.79464 5.14258 5.88096 5.46374 6.06674C5.89356 6.31537 6.20721 6.72436 6.33586 7.20396C6.46451 7.68356 6.39767 8.19461 6.14999 8.62499Z" fill="#E10098"/>
<path d="M2.91001 17.25C2.72423 16.9288 2.63791 16.5598 2.66197 16.1895C2.68603 15.8193 2.81939 15.4645 3.04517 15.1701C3.27095 14.8757 3.579 14.6549 3.93033 14.5356C4.28165 14.4164 4.66047 14.404 5.01881 14.5001C5.37716 14.5963 5.69894 14.7966 5.94341 15.0756C6.18788 15.3547 6.34407 15.7001 6.39218 16.0679C6.4403 16.4358 6.3782 16.8097 6.21373 17.1423C6.04926 17.4749 5.78982 17.7512 5.46826 17.9362C5.03788 18.1839 4.52683 18.2507 4.04723 18.1221C3.56763 17.9934 3.15864 17.6798 2.91001 17.25Z" fill="#E10098"/>
<path d="M17.85 8.62498C17.6642 8.30383 17.5779 7.93478 17.602 7.56454C17.626 7.1943 17.7594 6.83953 17.9852 6.54511C18.2109 6.2507 18.519 6.02989 18.8703 5.91064C19.2216 5.79138 19.6005 5.77903 19.9588 5.87516C20.3172 5.97128 20.6389 6.17156 20.8834 6.45065C21.1279 6.72973 21.2841 7.07507 21.3322 7.44295C21.3803 7.81084 21.3182 8.18473 21.1537 8.5173C20.9893 8.84987 20.7298 9.12617 20.4082 9.31123C19.9779 9.55891 19.4668 9.62576 18.9872 9.4971C18.5076 9.36845 18.0986 9.05481 17.85 8.62498Z" fill="#E10098"/>
<path d="M12 22.5C11.6292 22.5 11.2666 22.39 10.9583 22.184C10.65 21.978 10.4096 21.6851 10.2677 21.3425C10.1258 20.9999 10.0887 20.6229 10.161 20.2592C10.2334 19.8955 10.412 19.5614 10.6742 19.2992C10.9364 19.0369 11.2705 18.8584 11.6342 18.786C11.9979 18.7137 12.3749 18.7508 12.7175 18.8927C13.0601 19.0346 13.353 19.2749 13.559 19.5833C13.765 19.8916 13.875 20.2541 13.875 20.625C13.8757 20.8714 13.8277 21.1155 13.7337 21.3433C13.6397 21.5711 13.5016 21.7781 13.3274 21.9523C13.1531 22.1266 12.9461 22.2647 12.7184 22.3587C12.4906 22.4526 12.2464 22.5007 12 22.5Z" fill="#E10098"/>
<path d="M12 5.24322C11.6292 5.24322 11.2666 5.13325 10.9583 4.92722C10.65 4.7212 10.4096 4.42836 10.2677 4.08575C10.1258 3.74314 10.0887 3.36614 10.161 3.00242C10.2334 2.63871 10.412 2.30462 10.6742 2.04239C10.9364 1.78017 11.2705 1.60159 11.6342 1.52925C11.9979 1.4569 12.3749 1.49403 12.7175 1.63594C13.0601 1.77786 13.353 2.01818 13.559 2.32652C13.765 2.63487 13.875 2.99738 13.875 3.36822C13.8757 3.61464 13.8277 3.85877 13.7337 4.08657C13.6397 4.31437 13.5016 4.52134 13.3274 4.69559C13.1531 4.86984 12.9461 5.00792 12.7184 5.1019C12.4906 5.19589 12.2464 5.24391 12 5.24322Z" fill="#E10098"/>
</svg>
