<svg width="32" height="29" viewBox="0 0 32 29" fill="none" xmlns="http://www.w3.org/2000/svg">
<path d="M27 14.3333H20V16.125H24.8C24.4568 17.4538 23.7455 18.6837 22.7319 19.7014C21.7182 20.7191 20.4348 21.4917 19 21.9479L7.5 11.6458C8.12122 10.0718 9.27258 8.70929 10.7951 7.7465C12.3177 6.78371 14.1363 6.26808 16 6.27081C17.4448 6.27992 18.867 6.59268 20.1523 7.18393C21.4375 7.77517 22.5499 8.6284 23.4 9.67498L24.9 8.5104C23.6522 6.98328 21.9397 5.81058 19.9673 5.13265C17.995 4.45471 15.8464 4.30024 13.7786 4.68774C11.7108 5.07523 9.81139 5.98827 8.30774 7.31758C6.80409 8.6469 5.75986 10.3362 5.3 12.1833L18.5 24.0083C20.9111 23.4638 23.0529 22.219 24.5907 20.4686C26.1285 18.7182 26.9758 16.5607 27 14.3333ZM5 14.4229C5.00318 15.6911 5.28771 16.946 5.83706 18.1148C6.38641 19.2836 7.18962 20.343 8.2 21.2312C10.2138 23.0452 12.9444 24.0751 15.8 24.0979L5 14.4229Z" fill="white"/>
<path d="M16 1.79165C13.2311 1.79165 10.5243 2.5272 8.22202 3.9053C5.91973 5.2834 4.12532 7.24214 3.06569 9.53383C2.00607 11.8255 1.72882 14.3472 2.26901 16.7801C2.80921 19.2129 4.14258 21.4476 6.10051 23.2016C8.05845 24.9556 10.553 26.1501 13.2687 26.634C15.9845 27.1179 18.7994 26.8696 21.3576 25.9203C23.9157 24.9711 26.1022 23.3636 27.6406 21.3011C29.1789 19.2386 30 16.8138 30 14.3333C29.9892 11.01 28.5107 7.82564 25.8876 5.47572C23.2644 3.1258 19.7097 1.80134 16 1.79165ZM8.20001 21.3208C6.17516 19.5168 5.02544 17.0707 5.00001 14.5125L15.9 24.1875C13.0203 24.1417 10.2677 23.1169 8.20001 21.3208ZM18.4 23.9187L5.30001 12.1833C5.75987 10.3362 6.8041 8.64691 8.30775 7.31759C9.81139 5.98827 11.7108 5.07523 13.7786 4.68774C15.8464 4.30025 17.995 4.45471 19.9674 5.13265C21.9397 5.81059 23.6522 6.98328 24.9 8.5104L23.4 9.67498C22.5499 8.62841 21.4375 7.77518 20.1523 7.18393C18.867 6.59268 17.4448 6.27992 16 6.27081C14.1398 6.28103 12.3277 6.80172 10.808 7.76275C9.28817 8.72379 8.13369 10.079 7.50001 11.6458L19 21.9479C20.4348 21.4917 21.7182 20.7191 22.7319 19.7014C23.7455 18.6837 24.4568 17.4538 24.8 16.125H20V14.3333H27C26.9865 16.5665 26.129 18.7298 24.5672 20.4705C23.0055 22.2111 20.8316 23.4266 18.4 23.9187Z" fill="#663399"/>
</svg>
