<svg width="32" height="29" viewBox="0 0 32 29" fill="none" xmlns="http://www.w3.org/2000/svg">
<path d="M16 16.5496C17.3807 16.5496 18.5 15.5469 18.5 14.31C18.5 13.0731 17.3807 12.0704 16 12.0704C14.6193 12.0704 13.5 13.0731 13.5 14.31C13.5 15.5469 14.6193 16.5496 16 16.5496Z" fill="#00D8FF"/>
<path d="M16 19.4449C12.9951 19.51 9.9978 19.1472 7.12 18.3699C5.79062 17.9924 4.55073 17.3977 3.463 16.6159C3.04793 16.3488 2.70227 16.0044 2.44974 15.6064C2.19721 15.2084 2.04379 14.7661 2 14.31C2 12.8292 3.816 11.378 6.858 10.4284C9.81273 9.58696 12.8999 9.17917 16 9.22079C19.0587 9.1825 22.1045 9.58293 25.022 10.4069C26.3023 10.7725 27.5001 11.3385 28.56 12.0785C28.968 12.3331 29.3084 12.665 29.5573 13.0507C29.8061 13.4363 29.9573 13.8662 30 14.31C30 15.8491 27.97 17.4087 24.7 18.378C21.8779 19.1299 18.9438 19.4898 16 19.4449ZM16 10.2922C13.0341 10.2567 10.0808 10.6444 7.251 11.4407C4.451 12.3159 3.196 13.5127 3.196 14.3073C3.196 15.1387 4.545 16.4457 7.507 17.3532C10.2601 18.093 13.1266 18.4374 16 18.3735C18.8164 18.4186 21.6239 18.0772 24.325 17.3612C27.4 16.4484 28.8 15.1396 28.8 14.31C28.7495 14.0253 28.6337 13.7531 28.4599 13.5106C28.2861 13.2681 28.058 13.0604 27.79 12.9009C26.8418 12.2444 25.7717 11.7428 24.629 11.4192C21.838 10.6342 18.925 10.2537 16 10.2922Z" fill="#00D8FF"/>
<path d="M10.32 25.4802C9.85351 25.4898 9.39251 25.3884 8.98401 25.1863C7.55201 24.4464 7.05601 22.3125 7.65701 19.4772C8.31965 16.7638 9.46781 14.1643 11.057 11.7793C12.5477 9.38661 14.4562 7.223 16.71 5.3705C17.7032 4.55951 18.8489 3.91257 20.094 3.45969C20.5444 3.27061 21.0356 3.1726 21.533 3.1726C22.0304 3.1726 22.5216 3.27061 22.972 3.45969C24.461 4.22831 24.954 6.58256 24.259 9.60421C23.5759 12.1704 22.4576 14.6275 20.943 16.89C19.5047 19.2544 17.6564 21.3992 15.467 23.2442C14.4378 24.0869 13.2433 24.7518 11.944 25.2051C11.4238 25.3781 10.8748 25.4711 10.32 25.4802ZM12.093 12.3114C10.5771 14.5952 9.47667 17.0806 8.83301 19.6743C8.28001 22.2856 8.81101 23.856 9.58301 24.2556C10.383 24.6703 12.325 24.2771 14.683 22.4316C16.773 20.6641 18.5372 18.6111 19.91 16.3489C21.3609 14.186 22.4337 11.8368 23.091 9.38294C23.745 6.53867 23.18 4.79717 22.378 4.38329C22.0774 4.28011 21.7562 4.23393 21.4347 4.24765C21.1131 4.26138 20.7983 4.33471 20.51 4.46302C19.4017 4.87273 18.3827 5.45438 17.5 6.18123C15.3467 7.95568 13.5237 10.027 12.1 12.3168L12.093 12.3114Z" fill="#00D8FF"/>
<path d="M21.677 25.4918C20.322 25.4918 18.601 24.7572 16.809 23.3767C14.5157 21.5074 12.575 19.3181 11.062 16.8936C9.49275 14.5415 8.35368 11.9796 7.68801 9.305C7.39932 8.12831 7.34583 6.91509 7.53001 5.72167C7.5726 5.27895 7.72308 4.85 7.97085 4.46505C8.21862 4.0801 8.55764 3.74853 8.96401 3.49373C10.451 2.72242 12.974 3.51523 15.549 5.5631C17.6896 7.37464 19.5074 9.46957 20.939 11.7748C22.5073 14.072 23.6583 16.5779 24.349 19.1986C24.6501 20.4184 24.6966 21.6777 24.486 22.9127C24.4359 23.3682 24.2765 23.8085 24.0186 24.2036C23.7607 24.5987 23.4105 24.9391 22.992 25.2016C22.5902 25.4011 22.1363 25.5013 21.677 25.4918ZM12.097 16.3543C13.5484 18.6713 15.4023 20.7666 17.589 22.5615C19.838 24.295 21.622 24.6676 22.389 24.2636C23.189 23.8471 23.779 22.1468 23.171 19.3957C22.5049 16.8935 21.4009 14.5016 19.9 12.3087C18.5338 10.1024 16.7988 8.0964 14.755 6.36039C12.331 4.43256 10.365 4.00167 9.56401 4.41733C9.31436 4.59908 9.10948 4.82523 8.96232 5.08149C8.81516 5.33776 8.72891 5.61857 8.70901 5.90621C8.55002 6.97054 8.60181 8.05164 8.86201 9.09985C9.50232 11.6576 10.5948 14.1072 12.098 16.3561L12.097 16.3543Z" fill="#00D8FF"/>
</svg>
